<?xml version="1.0" encoding="UTF-8"?>
<!DOCTYPE svg PUBLIC "-//W3C//DTD SVG 1.1//EN" "http://www.w3.org/Graphics/SVG/1.1/DTD/svg11.dtd">
<!-- Creator: CorelDRAW -->
<svg xmlns="http://www.w3.org/2000/svg" xml:space="preserve" width="82.9485mm" height="25.917mm" version="1.1" style="shape-rendering:geometricPrecision; text-rendering:geometricPrecision; image-rendering:optimizeQuality; fill-rule:evenodd; clip-rule:evenodd"
viewBox="0 0 3354.11 1047.98"
 xmlns:xlink="http://www.w3.org/1999/xlink"
 xmlns:xodm="http://www.corel.com/coreldraw/odm/2003">
 <defs>
  <style type="text/css">
   <![CDATA[
    .fil3 {fill:#FEFEFE}
    .fil2 {fill:#175B5C}
    .fil0 {fill:#175B5C}
    .fil1 {fill:#E4AFA3}
    .fil4 {fill:#F7D6C1}
    .fil7 {fill:#175B5C;fill-rule:nonzero}
    .fil5 {fill:#175B5C;fill-rule:nonzero}
    .fil6 {fill:#E4AFA3;fill-rule:nonzero}
   ]]>
  </style>
 </defs>
 <g id="Слой_x0020_1">
  <metadata id="CorelCorpID_0Corel-Layer"/>
  <g id="_2374022483168">
   <g>
    <path class="fil0" d="M2410.37 518.78l0 118.77c0,2.91 0,5.55 0,8.2 0,2.56 0.17,5.03 0.6,7.43 0.43,2.47 1.62,4.78 3.67,6.91 1.97,2.14 5.21,3.25 9.57,3.25 3.5,0 8.54,-0.68 15.03,-2.05l0 11.18c-5.81,2.48 -11.19,4.27 -16.14,5.29 -4.95,0.94 -10.08,1.46 -15.37,1.46 -4.86,0 -9.31,-0.69 -13.57,-1.97 -4.19,-1.37 -7.94,-3.25 -11.27,-5.55 -6.15,-4.61 -9.99,-12.55 -11.44,-23.74l-4.52 4.69c-21.12,21.9 -51.64,32.19 -80.68,32.19 -18.62,0 -34.65,-5.83 -48.24,-17.42 -13.55,-11.55 -20.32,-26.56 -20.32,-45.09 0,-18.02 4.16,-31.95 12.64,-41.92 8.43,-9.92 18.7,-16.75 30.74,-20.58 30.07,-9.55 63.45,-9.72 90.5,-18.1 6.76,-2.09 11.78,-5.21 15.03,-9.31 3.24,-4.1 4.86,-10.08 4.86,-18.1 0,-19.04 -5.21,-33.81 -15.62,-44.32 -10.42,-10.5 -25.2,-15.15 -44.14,-15.71 -27.55,-0.82 -53.68,7.26 -57.92,28.38 -5.33,26.51 -31.08,14.6 -19.82,-6.89 10.08,-19.27 41.36,-43.01 93.46,-43.01 26.97,0 47.56,7.17 61.73,21.6 14.17,14.43 21.26,35.94 21.26,64.38zm-40.99 109.04l0 -74.71 -18.02 3.76c-21.37,3.76 -42.53,5.98 -62.57,14.6 -8.22,3.53 -15.15,8.95 -20.75,16.14 -5.57,7.15 -8.37,16.31 -8.37,27.5 0,15.96 4.38,27.99 13.15,36.12 22.53,20.89 62.19,12.92 82.82,-7.35l5.46 -5.29 5.55 -5.98c1.45,-1.97 2.39,-3.58 2.73,-4.78z"/>
    <path class="fil1" d="M2824.05 559.72c0,-18.36 3.24,-34.92 9.64,-49.78 6.41,-14.86 15.63,-27.84 27.67,-39.02 11.95,-11.19 25.78,-19.72 41.41,-25.62 15.54,-5.9 32.7,-8.88 51.4,-8.88 23.31,0 43.97,5.04 61.91,15.12 17.93,10.07 31.94,24.67 41.92,43.63 9.99,19.05 15.03,41.07 15.03,66.26 0,16.23 -2.73,31.94 -8.28,47.31 -5.46,15.28 -13.66,29.03 -24.59,41.16 -10.93,12.04 -24.59,21.52 -40.99,28.35 -16.31,6.83 -34.41,10.25 -54.22,10.25 -22.03,0 -42.35,-5.13 -60.97,-15.37 -18.62,-10.25 -33.21,-25.19 -43.89,-44.91 -10.67,-19.64 -16.05,-42.52 -16.05,-68.48zm94.49 -103.38c-19.28,6.43 -33.15,16.91 -41.54,31.42 -8.48,14.52 -12.45,30.97 -12.04,49.46 0.5,18.47 3.77,36.92 9.87,55.22 5.97,17.9 13.97,33.23 23.97,46.19 10.04,12.85 22.37,22.25 36.91,28.1 14.64,5.83 30.68,5.88 48.01,0.09 17.1,-5.7 29.4,-16.29 36.75,-31.79 7.44,-15.44 10.84,-32.51 10.38,-51.17 -0.55,-18.63 -3.23,-35.28 -8.12,-49.94 -4.02,-12.07 -9.21,-23.58 -15.48,-34.53 -6.3,-11.05 -13.83,-20.41 -22.47,-28.24 -8.64,-7.83 -18.66,-13.31 -29.89,-16.49 -11.23,-3.19 -23.38,-2.64 -36.34,1.68z"/>
    <path class="fil1" d="M3105.12 559.72c0,-18.36 3.24,-34.92 9.65,-49.78 6.41,-14.86 15.63,-27.84 27.67,-39.02 11.96,-11.19 25.79,-19.72 41.41,-25.62 15.54,-5.9 32.7,-8.88 51.4,-8.88 23.31,0 43.97,5.04 61.91,15.12 17.93,10.07 31.93,24.67 41.92,43.63 10,19.05 15.03,41.07 15.03,66.26 0,16.23 -2.73,31.94 -8.28,47.31 -5.46,15.28 -13.66,29.03 -24.59,41.16 -10.93,12.04 -24.6,21.52 -40.99,28.35 -16.31,6.83 -34.42,10.25 -54.22,10.25 -22.03,0 -42.35,-5.13 -60.97,-15.37 -18.62,-10.25 -33.21,-25.19 -43.89,-44.91 -10.68,-19.64 -16.05,-42.52 -16.05,-68.48zm94.49 -103.38c-19.28,6.43 -33.15,16.91 -41.54,31.42 -8.48,14.52 -12.45,30.97 -12.03,49.46 0.5,18.47 3.76,36.92 9.87,55.22 5.97,17.9 13.97,33.23 23.97,46.19 10.04,12.85 22.37,22.25 36.91,28.1 14.63,5.83 30.68,5.88 48.01,0.09 17.09,-5.7 29.4,-16.29 36.74,-31.79 7.44,-15.44 10.84,-32.51 10.38,-51.17 -0.55,-18.63 -3.23,-35.28 -8.12,-49.94 -4.02,-12.07 -9.21,-23.58 -15.48,-34.53 -6.3,-11.05 -13.83,-20.41 -22.48,-28.24 -8.64,-7.83 -18.66,-13.31 -29.89,-16.49 -11.23,-3.19 -23.39,-2.64 -36.34,1.68z"/>
    <path class="fil0" d="M1532.04 559.72c0,-18.36 3.24,-34.92 9.64,-49.78 6.41,-14.86 15.63,-27.84 27.67,-39.02 11.96,-11.19 25.79,-19.72 41.41,-25.62 15.54,-5.9 32.7,-8.88 51.4,-8.88 23.31,0 43.97,5.04 61.91,15.12 17.93,10.07 31.94,24.67 41.92,43.63 9.99,19.05 15.03,41.07 15.03,66.26 0,16.23 -2.73,31.94 -8.28,47.31 -5.46,15.28 -13.66,29.03 -24.59,41.16 -10.93,12.04 -24.59,21.52 -40.99,28.35 -16.31,6.83 -34.42,10.25 -54.22,10.25 -22.03,0 -42.35,-5.13 -60.97,-15.37 -18.62,-10.25 -33.21,-25.19 -43.89,-44.91 -10.67,-19.64 -16.05,-42.52 -16.05,-68.48zm94.49 -103.38c-19.28,6.43 -33.15,16.91 -41.54,31.42 -8.48,14.52 -12.45,30.97 -12.03,49.46 0.5,18.47 3.76,36.92 9.87,55.22 5.97,17.9 13.97,33.23 23.97,46.19 10.04,12.85 22.37,22.25 36.91,28.1 14.63,5.83 30.68,5.88 48.01,0.09 17.09,-5.7 29.4,-16.29 36.74,-31.79 7.44,-15.44 10.84,-32.51 10.38,-51.17 -0.55,-18.63 -3.23,-35.28 -8.12,-49.94 -4.02,-12.07 -9.21,-23.58 -15.48,-34.53 -6.3,-11.05 -13.83,-20.41 -22.47,-28.24 -8.64,-7.83 -18.66,-13.31 -29.89,-16.49 -11.23,-3.19 -23.38,-2.64 -36.34,1.68z"/>
    <path class="fil1" d="M2561.05 533.6l0 135.08c41.49,0 76.86,10.8 119.63,-10.5 22.31,-11.15 38.52,-27.73 48.43,-49.74 9.36,-20.65 14.47,-47.91 15.11,-74.83l43.02 0c-0.43,15.43 -2.7,30.72 -6.7,45.04 -4.4,16.07 -10.86,30.23 -19.22,42.56 -8.37,12.33 -18.2,23.55 -29.57,33.75 -8.58,7.71 -18.34,13.94 -29.21,18.71 -4.77,1.98 -9.9,3.89 -15.48,5.66 -5.58,1.83 -11.23,3.23 -16.87,4.33 -5.65,1.03 -11.23,1.98 -16.81,2.79 -5.5,0.81 -10.56,1.17 -15.11,1.17l-39.55 0.88 -85.78 0 0 -154.88 48.11 0z"/>
    <path class="fil1" d="M2561.05 405.47c41.49,0 72.19,-10.82 114.94,10.5 22.32,11.13 38.48,27.76 48.42,49.75 19.34,42.75 19.34,99.96 0,142.71 -9.94,21.99 -26.11,38.62 -48.42,49.74 -42.76,21.32 -73.45,10.5 -114.94,10.5 0,-87.73 0,-175.47 0,-263.2zm200.27 47.48c-8.37,-12.33 -18.2,-23.55 -29.57,-33.76 -8.58,-7.7 -18.34,-13.94 -29.21,-18.71 -4.77,-1.98 -9.9,-3.89 -15.48,-5.65 -5.58,-1.83 -11.23,-3.23 -16.87,-4.33 -5.65,-1.02 -11.23,-1.97 -16.81,-2.79 -5.5,-0.8 -10.56,-1.17 -15.11,-1.17l-39.55 -0.88 -85.78 0c0,100.94 0,201.87 0,302.81l85.78 0 39.55 -0.88c4.55,0 9.61,-0.36 15.11,-1.17 5.58,-0.81 11.16,-1.76 16.81,-2.79 5.65,-1.1 11.3,-2.49 16.87,-4.33 5.58,-1.77 10.72,-3.68 15.48,-5.66 10.87,-4.77 20.62,-11 29.21,-18.71 11.37,-10.2 21.2,-21.42 29.57,-33.75 33.72,-49.71 33.72,-118.53 0,-168.24z"/>
    <path class="fil0" d="M2152.71 359.5l0 282.73c0,2.88 0,5.55 0,8.2 0,2.56 0.17,5.04 0.6,7.43 0.43,2.47 1.62,4.78 3.67,6.91 1.97,2.14 5.21,3.25 9.57,3.25 3.5,0 8.54,-0.69 15.03,-2.05l0 11.19c-5.81,2.48 -11.19,4.27 -16.14,5.29 -4.95,0.94 -10.08,1.45 -15.37,1.45 -4.86,0 -9.31,-0.68 -13.57,-1.96 -4.19,-1.37 -7.94,-3.25 -11.27,-5.55 -6.15,-4.61 -9.99,-12.55 -11.44,-23.74l0 -278.85 38.94 -14.3z"/>
    <path class="fil0" d="M2026.64 436.59l0 186 0 19.44c0,11.46 -3.25,27.66 13.42,27.66 3.5,0 8.54,-0.68 15.03,-2.05l0 11.18c-5.81,2.48 -11.18,4.27 -16.14,5.29 -14.08,2.68 -28.06,2.35 -40.22,-6.06 -12.03,-9.02 -13.08,-27.75 -13.08,-40.64 -5.47,10.5 -12.22,19.21 -20.15,26.21 -7.86,7 -17.08,12.38 -27.58,16.22 -10.51,3.84 -21.77,5.72 -33.73,5.72 -28.52,0 -49.8,-7.84 -63.69,-23.48 -13.94,-15.69 -20.83,-40.73 -20.83,-75.06l0 -150.54 40.99 0.09 0 138.32c0,18.35 1.97,33.9 5.98,46.54 4.01,12.63 10.59,22.37 19.81,29.03 9.14,6.66 21.27,9.99 36.2,9.99 16.23,0 28.86,-4.01 38,-12.04 9.22,-7.94 15.62,-18.36 19.39,-31.16 3.74,-12.72 5.64,-25.87 5.64,-39.36l0 -141.4 40.99 0.09z"/>
    <path class="fil2" d="M1263.41 405.47c41.49,0 72.19,-10.82 114.94,10.5 22.32,11.13 38.48,27.76 48.42,49.75 19.34,42.75 19.34,99.96 0,142.71 -9.94,21.99 -26.11,38.62 -48.42,49.74 -42.76,21.32 -73.45,10.5 -114.94,10.5 0,-87.73 0,-175.47 0,-263.2zm200.27 47.48c-8.37,-12.33 -18.2,-23.55 -29.57,-33.76 -8.58,-7.7 -18.34,-13.94 -29.21,-18.71 -4.77,-1.98 -9.9,-3.89 -15.48,-5.65 -5.58,-1.83 -11.23,-3.23 -16.87,-4.33 -5.65,-1.02 -11.23,-1.97 -16.81,-2.79 -5.5,-0.8 -10.56,-1.17 -15.11,-1.17l-39.55 -0.88 -85.78 0c0,100.94 0,201.87 0,302.81l85.78 0 39.55 -0.88c4.55,0 9.61,-0.36 15.11,-1.17 5.58,-0.81 11.16,-1.76 16.81,-2.79 5.65,-1.1 11.3,-2.49 16.87,-4.33 5.58,-1.77 10.72,-3.68 15.48,-5.66 10.87,-4.77 20.62,-11 29.21,-18.71 11.37,-10.2 21.2,-21.42 29.57,-33.75 33.72,-49.71 33.72,-118.53 0,-168.24z"/>
   </g>
   <g>
    <circle class="fil3" cx="523.99" cy="523.99" r="511.32"/>
    <path class="fil4" d="M449.5 475.32c-7.72,-3.05 -40.74,38.23 -16.68,80.5 19.45,34.17 66.78,54.03 92.83,91.16 3.77,-9.49 -4.62,-43.7 35.06,-41.46 0.15,-0.1 8.34,-39.23 7.67,-42.13 -5.22,-22.55 -17.05,-25.87 0.11,-68.05 0.44,-1.09 -15.99,-17.62 -15.96,1.3 0.02,13.78 -8.22,-10.61 -19.31,11.03 -19.32,37.68 -64.42,0.99 -83.72,-32.36z"/>
    <path class="fil4" d="M523.99 12.67c282.39,0 511.32,228.92 511.32,511.32 0,69.72 2.49,100.96 -35.9,188.58 -26.76,31.87 -83.29,88.32 -150.62,103.61 -79.49,18.05 -153.94,10.98 -203.77,-14.34 55.75,-13.09 196.26,-129.02 105.13,-236.85 17.56,-59.4 -25.62,-142.46 -135.29,-104.95 -7.12,-20.41 14.19,-57.47 26.63,-60.93 82.73,-24.34 90.33,-147.54 43.37,-219.2 -36.99,-56.45 -109.63,-76.09 -151.92,-79.43 -69.68,-5.52 -150.19,31.83 -241.96,141.77 -66.85,80.1 -141.27,228.77 -116.51,428.85 -72.54,27.59 -162.91,-55.53 -161.81,-147.1 3.4,-282.38 228.92,-511.32 511.32,-511.32z"/>
    <path class="fil5" d="M523.99 0c144.69,0 275.69,58.65 370.52,153.47 94.82,94.82 153.47,225.83 153.47,370.52 0,144.69 -58.65,275.7 -153.47,370.52 -94.82,94.82 -225.83,153.47 -370.52,153.47 -144.69,0 -275.7,-58.65 -370.52,-153.47 -94.82,-94.82 -153.47,-225.83 -153.47,-370.52 0,-144.69 58.66,-275.7 153.47,-370.52 94.82,-94.82 225.83,-153.47 370.52,-153.47zm352.6 171.39c-90.23,-90.23 -214.9,-146.05 -352.6,-146.05 -137.7,0 -262.37,55.82 -352.6,146.05 -90.23,90.23 -146.05,214.9 -146.05,352.6 0,137.7 55.81,262.37 146.05,352.6 90.23,90.23 214.9,146.05 352.6,146.05 137.7,0 262.37,-55.82 352.6,-146.05 90.23,-90.23 146.05,-214.9 146.05,-352.6 0,-137.7 -55.81,-262.37 -146.05,-352.6z"/>
    <path class="fil6" d="M651.07 924.64c-2.79,0.16 -5.18,-1.97 -5.35,-4.75 -0.16,-2.79 1.97,-5.18 4.75,-5.35 31.22,-1.86 63.06,-6.58 94.1,-15.44 30.96,-8.84 61.08,-21.8 88.91,-40.14 2.33,-1.53 5.46,-0.88 6.99,1.45 1.53,2.33 0.88,5.46 -1.44,6.99 -28.8,18.98 -59.85,32.36 -91.68,41.45 -31.75,9.07 -64.34,13.9 -96.28,15.8zm-424.94 -12.98c-2.21,-1.71 -2.62,-4.88 -0.91,-7.09 1.7,-2.2 4.88,-2.62 7.09,-0.91l3.08 2.38c54.1,41.9 152.17,117.85 395.95,90.33 2.77,-0.3 5.28,1.7 5.58,4.48 0.3,2.77 -1.7,5.28 -4.48,5.58 -247.82,27.98 -347.98,-49.59 -403.23,-92.38l-3.08 -2.38zm52.38 -109.19c-1.43,-2.39 -0.65,-5.5 1.74,-6.93 2.39,-1.43 5.5,-0.65 6.93,1.74 15.98,26.61 32.87,46.47 53.03,63.68 20.27,17.31 43.92,32.05 73.3,48.36 2.44,1.35 3.32,4.44 1.96,6.87 -1.35,2.44 -4.44,3.32 -6.87,1.96 -29.93,-16.61 -54.1,-31.68 -74.96,-49.51 -20.97,-17.91 -38.54,-38.55 -55.13,-66.17zm86.81 20.11c-1.99,-1.96 -2.01,-5.16 -0.06,-7.15 1.95,-1.99 5.16,-2.01 7.15,-0.06 24.61,24.28 53.99,45.09 85.49,60.99 31.26,15.77 64.62,26.69 97.51,31.35 2.77,0.38 4.7,2.94 4.32,5.7 -0.38,2.77 -2.94,4.7 -5.7,4.31 -34.02,-4.82 -68.46,-16.09 -100.68,-32.34 -32.42,-16.35 -62.66,-37.79 -88.02,-62.81zm90.65 -1.42c-1.99,-1.96 -2.01,-5.16 -0.06,-7.15 1.96,-1.99 5.16,-2.01 7.15,-0.06 23.69,23.37 64.39,38.86 111.89,45.86 49.57,7.31 106.34,5.32 158.98,-6.58 2.72,-0.61 5.43,1.1 6.04,3.82 0.61,2.72 -1.1,5.43 -3.83,6.04 -53.87,12.18 -111.96,14.21 -162.66,6.73 -49.52,-7.29 -92.23,-23.72 -117.52,-48.67zm-393.89 -140.31c-2.12,-1.82 -2.37,-5.01 -0.55,-7.13 1.82,-2.12 5.01,-2.37 7.13,-0.55 6.26,5.35 15.81,12.34 28,17.86 8.74,3.96 18.86,7.18 30.11,8.51 2.77,0.33 4.76,2.85 4.43,5.62 -0.33,2.77 -2.85,4.76 -5.62,4.43 -12.37,-1.46 -23.49,-4.99 -33.07,-9.34 -13.25,-6.01 -23.62,-13.59 -30.42,-19.41zm48.89 102.92c-0.7,-2.7 0.92,-5.45 3.62,-6.15 2.7,-0.7 5.45,0.92 6.15,3.62 2.27,8.79 4.47,16.01 9.2,23.75 4.82,7.89 12.37,16.55 25.39,28.22 2.08,1.86 2.26,5.05 0.4,7.13 -1.86,2.07 -5.05,2.25 -7.12,0.39 -13.85,-12.41 -21.98,-21.77 -27.29,-30.47 -5.42,-8.86 -7.85,-16.83 -10.35,-26.48zm30.17 8.41c-1.12,-2.56 0.03,-5.55 2.59,-6.67 2.56,-1.13 5.55,0.03 6.67,2.59 3.96,8.96 7.8,16.94 12.69,23.97l0.17 0.25c4.74,6.78 10.57,12.81 18.62,18.22 2.32,1.55 2.94,4.69 1.39,7.01 -1.55,2.32 -4.69,2.94 -7.01,1.39 -9.2,-6.18 -15.86,-13.07 -21.29,-20.83l-0.19 -0.25c-5.36,-7.72 -9.45,-16.19 -13.64,-25.67zm395.22 3.4c-2.02,-1.92 -2.1,-5.13 -0.18,-7.15 1.92,-2.02 5.12,-2.1 7.15,-0.18 5.97,5.67 21.08,11.46 37.63,15.93 19.41,5.25 40.4,8.53 51.1,7.72 2.79,-0.21 5.22,1.89 5.42,4.67 0.21,2.79 -1.88,5.22 -4.67,5.43 -11.75,0.88 -34.1,-2.53 -54.47,-8.04 -17.95,-4.85 -34.69,-11.46 -41.98,-18.38zm-272.17 -133.81c-1.94,2 -5.15,2.04 -7.15,0.1 -2,-1.95 -2.05,-5.15 -0.1,-7.15 12.26,-12.54 37.41,-26.12 64.68,-28.9 20.37,-2.07 42.01,1.78 60.57,16.36 2.2,1.73 2.58,4.91 0.85,7.11 -1.73,2.2 -4.91,2.58 -7.11,0.85 -16.23,-12.74 -35.3,-16.1 -53.32,-14.26 -24.78,2.53 -47.46,14.69 -58.42,25.9z"/>
    <path class="fil7" d="M399.65 346.4c0.7,-0.82 1.65,-1.42 2.76,-1.66 12.4,-7.36 22.5,-11.59 29.19,-12.11 72.85,-5.63 119.2,-10.76 154.34,-21.76 34.69,-10.86 58.71,-27.59 87.22,-56.48 1.95,-1.99 5.16,-2.01 7.15,-0.06 1.47,1.44 1.86,3.57 1.18,5.38 0.51,0.72 0.83,1.56 0.91,2.44 0.28,1.9 0.8,4.52 1.39,7.57 4.59,23.39 13.97,71.33 -21.02,114.32 8.78,-6.83 17.64,-16.81 25.34,-29.02 14.64,-23.22 24.73,-54.27 21.83,-86.99l-0.03 -0.36c-2.35,-25.74 -9.28,-50.48 -21.53,-72.51 -11.3,-20.31 -27.16,-38.33 -48.16,-52.74 -2.94,-2.01 -5.9,-3.95 -8.86,-5.8 -67.62,-42.24 -136.2,-37.91 -197.78,-8.57 -62.21,29.63 -117.4,84.64 -157.54,143.15 -4.24,6.18 -8.33,12.43 -12.23,18.68 -36.01,57.65 -64.19,124.2 -79.36,192.68 -11.63,52.5 -15.61,106.14 -9.62,157.79 13.39,-55.57 45.23,-110.88 82.32,-158.91 47.82,-61.92 104.85,-111.96 142.49,-135.05zm264 346.17c1.61,-2.27 4.78,-2.8 7.05,-1.19 2.28,1.62 2.81,4.78 1.19,7.05 -12.49,17.6 -28.75,31.03 -45.85,37.23 -8.6,3.11 -17.44,4.42 -26.14,3.53 -8.77,-0.89 -17.36,-4.01 -25.39,-9.71 -12.43,-8.82 -23.49,-23.89 -31.71,-46.58 -1.71,-4.74 -4.25,-9.69 -6.83,-14.75 -5.99,-11.75 -12.29,-24.09 -11.8,-39.73 0.32,-10.03 9.25,-20.38 18.67,-25.27 2.95,-1.53 6.03,-2.58 8.99,-2.97 3.23,-0.43 6.34,-0.07 9.09,1.27 -0.87,-4.43 -1.31,-8.84 -1.18,-12.95 0.14,-4.35 1.52,-8.58 2.92,-12.82l0.08 -0.23c1.77,-5.38 3.5,-10.8 1.53,-13.99 -18.39,-29.72 -3.99,-58.71 -1.06,-64.17 -1.52,-0.57 -2.79,-1.59 -4.04,-2.73l0.13 1.62c0.32,3.87 0.62,7.51 -1.31,10.09 -4.26,5.69 -8.14,5.05 -11.9,2.23 -1.13,-0.85 -2.03,-1.84 -2.92,-2.83l-0.48 -0.51c-4.52,5.37 -10.32,10.61 -16.12,14.67 -6.09,4.26 -12.33,7.32 -17.39,8.06 -8.59,1.25 -19.32,-4.49 -30.03,-13.91 -10.34,-9.09 -21.02,-21.78 -29.64,-34.6l-3.14 4.19c-19.11,25.4 -39.64,52.7 30.38,112.97 4.14,3.57 8.58,6.85 13.02,10.13 17.02,12.58 34.35,25.39 40.13,54.93 0.27,1.4 -1.37,12.72 -10.24,23.01 -1.93,2.24 -4.2,4.48 -6.87,6.63 19.09,2.12 36.11,10.01 43.77,32.32 1.62,4.72 1.82,13.1 0.08,20.78 -1.04,4.58 -2.78,9.05 -5.35,12.61 9.6,7.61 21.9,15.33 36.33,22.67 17.64,-5.47 35.23,-11.68 51.2,-19.96 16.28,-8.43 30.91,-19.05 42.22,-33.28 14.44,-18.16 15.75,-40.4 17.16,-64.31 0.64,-10.88 1.31,-22.1 3.19,-33.62 0.97,-5.96 7.16,-20.2 13.43,-30.14 2.25,-3.58 4.58,-6.72 6.75,-8.86 3.33,-3.31 6.83,-4.76 10.28,-3.45 1.09,0.44 2.07,1.1 2.9,2.05 4.38,4.96 2.18,20.1 0.36,32.65l-0.51 2.94c0.49,-0.7 0.96,-1.43 1.41,-2.2 2.87,-4.92 5.05,-11.6 4.97,-20.97 -0.11,-14.93 0.96,-27.94 4.46,-33.61 -0.36,-0.89 -0.46,-1.89 -0.25,-2.9 1.87,-8.85 5.6,-28.28 1.61,-48.56 -3.91,-19.83 -15.39,-40.66 -43.8,-53.22 -10.13,-4.47 -23.04,-7.12 -36.42,-7.52 -12.81,-0.38 -26.02,1.27 -37.57,5.31 -2.31,0.8 -4.83,1.75 -7.52,2.81 -2.03,0.79 -3.87,1.55 -5.55,2.27 -0.36,2.51 -0.73,5.14 -1.08,7.89 -1.06,8.21 -7.15,9.53 -14.8,8.54 -2.8,-0.36 -5.59,-1.01 -8.34,-1.64 -3.85,-0.89 -7.63,-1.77 -9.72,-1.53l-6.09 4.31c-0.05,0.63 -0.04,1.52 -0.02,2.39 0.06,3.55 0.13,7.02 -2.48,9.58 0.04,0.28 0.17,0.69 0.15,1.29 -0.06,1.87 -0.12,3.62 -0.98,5.29l-0.19 0.35c-1.61,2.94 -15.65,28.58 0.46,54.62 4.44,7.19 1.99,14.86 -0.51,22.45l-0.07 0.25c-1.18,3.59 -2.37,7.18 -2.45,9.94 -0.17,5.6 1,12.06 2.92,18.26 2.1,6.76 5.07,13.1 8.15,17.61l0.21 0.28c6.41,9.19 14.24,15.26 25.56,16.33 12.11,1.14 28.43,-3.11 51.32,-14.75 0.44,-0.22 0.93,-0.39 1.45,-0.48 2.75,-0.47 5.37,1.39 5.84,4.14 1.86,10.73 -11.73,17.95 -27.87,26.51 -13.62,7.23 -29.35,15.58 -36.61,26.2 -1.5,2.2 -3.3,3.59 -5.33,4.25 -4.16,1.36 -8.2,-0.39 -11.99,-4.33 -2.76,-2.87 -5.54,-7.07 -8.15,-12 -8.57,-16.11 -16.28,-41.53 -16.28,-53 -0,-4.26 -1,-6.5 -2.5,-7.27 -0.86,-0.44 -2.05,-0.53 -3.42,-0.36 -1.73,0.23 -3.68,0.92 -5.66,1.94 -6.68,3.47 -13.01,10.33 -13.21,16.6 -0.41,12.99 5.3,24.17 10.73,34.82 2.68,5.26 5.31,10.4 7.3,15.9 7.47,20.62 17.23,34.1 28.07,41.79 6.53,4.64 13.49,7.17 20.55,7.89 7.13,0.73 14.46,-0.36 21.67,-2.97 15.15,-5.49 29.71,-17.61 41.05,-33.59zm-97.34 -205.28l0.15 -0.11c0.11,-0.31 -0.63,-0.99 -0.64,-2.02 -0.05,-2.63 -0.09,-5.33 1.32,-8.03 0.36,-0.68 0.87,-1.29 1.54,-1.76 0.02,-0.02 8.92,-6.75 12.24,-7.12 3.77,-0.42 8.39,0.64 13.08,1.73 2.61,0.61 5.26,1.22 7.36,1.49 1.98,0.25 3.49,0.4 3.51,0.21 2.71,-20.97 5.68,-35.19 9.42,-45.7 3.91,-11 8.68,-18.06 14.82,-24.4 7.19,-7.4 12.18,-11.33 16.07,-14.38 2.61,-2.05 4.68,-3.68 6.4,-5.61 31.01,-34.79 28.37,-74.62 24.23,-99.38 -44.2,107.44 -158.49,88.56 -227.68,77.13 -19.26,-3.18 -34.87,-5.76 -43.56,-4.69 -35.64,21.74 -91.75,71.28 -139.41,133 -42.16,54.59 -77.35,118.56 -85.29,181.01 6.86,-2.14 13.46,-5.04 19.72,-8.67 8.99,-5.2 17.32,-11.92 24.73,-20 11.47,-12.49 24.77,-23.26 39.06,-31.88 -0.4,-0.64 -0.66,-1.37 -0.74,-2.17 -3.7,-36.47 4.46,-60.54 19.39,-74.11 9.57,-8.69 21.8,-13 35.41,-13.44 13.18,-0.42 27.68,2.81 42.27,9.19 40.56,17.75 82.5,60.29 98.91,116.48 9.47,1.66 16.82,5.02 22.56,9.89 9.49,8.05 14.27,19.89 16.86,34.78 6.18,-3.13 10.7,-6.95 13.97,-10.74 6.48,-7.51 8.07,-13.8 7.94,-14.45 -5.03,-25.71 -20.76,-37.33 -36.21,-48.75 -4.63,-3.42 -9.24,-6.83 -13.57,-10.56 -77.21,-66.45 -53.73,-97.67 -31.88,-126.71 1.82,-2.41 3.63,-4.82 5.41,-7.31 -6.61,-11.18 -11.29,-21.98 -12.49,-30.15 -0.86,-5.86 -0.01,-10.76 2.97,-14.15 1.85,-2.1 5.05,-2.3 7.15,-0.46 2.1,1.85 2.3,5.05 0.46,7.15 -0.85,0.96 -0.98,3.08 -0.56,6 1.24,8.43 7.25,20.79 15.49,33.34 8.36,12.75 18.94,25.49 29.13,34.45 8.59,7.56 16.55,12.27 21.87,11.49 3.49,-0.51 8.21,-2.91 13.08,-6.32 5.35,-3.74 10.69,-8.62 14.72,-13.56 4.74,-5.81 8.77,-4.78 12.56,-1.68l1.18 1.06 -0.25 -3.33c-0.32,-6.02 0.56,-11.33 7.02,-11.67 4.63,-0.24 6.99,1.95 9.24,4.04 0.46,0.43 0.91,0.84 1.04,0.89zm3.92 139.28c2.28,11.55 7.94,27.94 14.08,39.48 2.22,4.19 4.45,7.62 6.49,9.74 0.96,1 1.45,1.65 1.54,1.71 0.05,-0.03 -0.04,-0.09 0.13,-0.33 8.52,-12.46 25.03,-21.36 39.51,-29.05 -10.15,2.94 -18.78,3.89 -26.24,3.19 -14.82,-1.4 -24.87,-9.05 -32.92,-20.61l-0.21 -0.34c-0.8,-1.17 -1.6,-2.44 -2.37,-3.79zm47.63 -173.24c2.3,-0.91 4.93,-1.89 7.85,-2.91 12.74,-4.46 27.2,-6.29 41.17,-5.87 14.7,0.44 28.96,3.38 40.22,8.35 32.17,14.22 45.2,37.94 49.66,60.54 3.88,19.68 1.15,38.37 -0.91,48.97 4.23,1.99 9.16,8.01 14.9,19.19 10.3,20.06 15.61,42.21 15.05,64.26 -0.53,21.04 -6.38,42 -18.3,61 -19.47,31.03 -38.93,52.27 -59.33,68.04 -17.12,13.24 -34.82,22.56 -53.67,30.54 6.2,1.77 12.54,3.42 18.99,4.95 44.29,10.46 94.17,14.75 142.94,7.19 42.05,-6.51 82.85,-23.5 116.2,-47.17 32.63,-23.15 58.07,-52.64 70.48,-84.9 0.99,-2.6 3.91,-3.91 6.51,-2.92 2.6,0.99 3.91,3.91 2.91,6.52 -13.15,34.2 -39.88,65.29 -74.05,89.53 -34.58,24.54 -76.9,42.15 -120.51,48.91 -50.22,7.78 -101.41,3.41 -146.79,-7.31 -32.32,-7.64 -61.77,-18.52 -85.88,-30.55 -0.26,-0.11 -0.51,-0.23 -0.75,-0.38 -16.43,-8.25 -30.34,-17.02 -40.94,-25.63 -8,4.88 -15.9,4.9 -22.06,2.14 -3.08,-1.38 -5.72,-3.47 -7.73,-6.02 -2.03,-2.58 -3.44,-5.61 -4.01,-8.84 -1.03,-5.8 0.5,-12.22 5.63,-17.75 -2.46,-1.82 -4.93,-2.94 -7.35,-3.44 -4.06,-0.85 -8.13,-0.01 -11.83,2.05 -1.1,0.61 -2.18,1.34 -3.21,2.16 -0.21,0.6 -0.39,1.23 -0.53,1.88 -1.29,5.96 0.22,13.52 3.87,20.45 3.7,7.02 9.56,13.28 16.89,16.51l0.23 0.11c1.56,0.66 3.22,1.2 4.95,1.58 2.73,0.59 4.47,3.28 3.88,6.02 -0.59,2.73 -3.28,4.47 -6.02,3.88 -2.35,-0.51 -4.64,-1.26 -6.85,-2.21l-0.29 -0.12c-9.53,-4.2 -17.07,-12.17 -21.75,-21.06 -2.19,-4.14 -3.76,-8.52 -4.65,-12.85 -2.13,5.24 -3.22,11.11 -2.88,17.06 1.01,17.45 -7.47,29.72 -19.12,36.12 -4.84,2.66 -10.26,4.28 -15.77,4.8 -5.51,0.53 -11.12,-0.04 -16.34,-1.75 -12.38,-4.06 -22.68,-14.36 -24.86,-31.5 -1.13,-8.93 4.42,-17.05 11.74,-21.34 2.7,-1.58 5.67,-2.67 8.61,-3.11 3.14,-0.46 6.32,-0.2 9.28,0.95 3.76,1.46 7.02,4.25 9.18,8.68 1.12,-2.28 1.73,-4.61 1.89,-6.93 0.29,-4.23 -0.92,-8.52 -3.33,-12.44l-0.23 -0.32c-2.69,-4.24 -6.78,-8.05 -11.91,-10.96 -8.41,-4.76 -19.58,-7.08 -32.16,-5.03 1.52,20.75 -3.21,37.02 -11.4,49.08 0.44,1.02 0.92,2.06 1.42,3.1 13.96,28.74 56.4,72.84 126.76,96.92 70.86,24.25 169.84,27.98 296.35,-24.85 12.18,-5.09 24.6,-10.69 37.24,-16.83 2.52,-1.21 5.54,-0.16 6.75,2.36 1.21,2.52 0.15,5.54 -2.36,6.75 -12.85,6.24 -25.45,11.92 -37.75,17.06 -129.19,53.95 -230.65,50.01 -303.47,25.09 -72.41,-24.78 -116.72,-70.5 -132.06,-100.97 -3.64,3.65 -7.65,6.73 -11.89,9.25 -8.12,4.82 -17.09,7.58 -25.92,8.36 -8.87,0.78 -17.67,-0.43 -25.39,-3.54 -15.22,-6.13 -26.17,-19.43 -25.68,-39.17 0.33,-13.18 5.79,-21.02 12.32,-24.42 3.61,-1.88 7.56,-2.39 11.23,-1.72 3.71,0.68 7.14,2.58 9.69,5.53 3.57,4.12 5.4,10.22 3.73,17.69 2.26,0 4.86,-1.1 7.34,-2.94 2.16,-1.59 4.2,-3.74 5.92,-6.26 1.75,-2.55 3.15,-5.46 4,-8.53 2.33,-8.43 0.47,-18.43 -9.95,-26.41 -10.69,-8.2 -21.11,-10.09 -32.39,-7.34 -11.01,2.69 -23.13,9.72 -37.16,19.66 6.79,11.1 10.53,23.83 10.81,36.27 0.2,9.14 -1.46,18.16 -5.14,26.28 -3.72,8.23 -9.51,15.56 -17.5,21.23 -9.91,7.04 -23.18,11.49 -40.08,11.86 -18.26,0.4 -31.13,-8.41 -38.11,-19.57l-0.2 -0.3c-2.81,-4.59 -4.65,-9.6 -5.44,-14.56 -0.81,-5.04 -0.55,-10.04 0.82,-14.5 2.47,-8.05 8.38,-14.3 17.89,-16.13l0.69 -0.13c2.77,-0.32 5.29,1.68 5.6,4.46 1.24,10.7 4.4,16 8.14,17.75 1.46,0.68 3.13,0.81 4.83,0.53 1.88,-0.32 3.81,-1.14 5.65,-2.3l0.24 -0.17c5.65,-3.69 10.08,-10.24 9.66,-15.82 -0.51,-6.6 -2.33,-11.34 -5,-14.64l-0.21 -0.24c-2.49,-2.97 -5.78,-4.84 -9.44,-5.89 -3.92,-1.13 -8.34,-1.36 -12.75,-1.03 -11.03,0.84 -21.4,5.06 -24.58,7.73 -11.65,9.79 -22.7,16.52 -33.03,20.76 -16.01,6.59 -30.31,7.21 -42.49,3.98 -12.28,-3.26 -22.33,-10.41 -29.8,-19.3 -4.56,-5.44 -8.16,-11.53 -10.73,-17.77 -1.06,-2.58 0.18,-5.54 2.75,-6.59 2.58,-1.06 5.54,0.17 6.6,2.75 2.19,5.33 5.26,10.51 9.12,15.11 6.24,7.4 14.54,13.34 24.63,16.01 10.19,2.7 22.3,2.12 36.08,-3.54 9.37,-3.85 19.53,-10.07 30.37,-19.18 4.21,-3.53 17.17,-9.07 30.32,-10.07 5.47,-0.42 11.09,-0.09 16.32,1.42 5.5,1.59 10.5,4.46 14.38,9.1l0.24 0.31c3.95,4.84 6.64,11.46 7.31,20.31 0.71,9.25 -5.82,19.57 -14.21,25.05l-0.31 0.19c-2.96,1.89 -6.2,3.24 -9.46,3.78 -3.63,0.61 -7.31,0.25 -10.77,-1.36 -5.71,-2.67 -10.53,-8.72 -12.9,-19.52 -2.73,1.7 -4.55,4.31 -5.49,7.39 -0.91,2.98 -1.07,6.41 -0.5,9.95 0.58,3.63 1.96,7.36 4.09,10.84l0.15 0.25c5.29,8.46 15.18,15.14 29.34,14.83 14.7,-0.33 26.08,-4.08 34.42,-10 6.45,-4.58 11.12,-10.5 14.13,-17.15 3.05,-6.75 4.43,-14.27 4.26,-21.92 -0.27,-12.04 -4.35,-24.44 -11.72,-34.82 -1.61,-2.26 -1.09,-5.4 1.15,-7.02 16.66,-12.13 31.04,-20.8 44.64,-24.11 14.34,-3.51 27.5,-1.16 40.91,9.11 14.38,11.03 16.87,25.13 13.55,37.14 -1.16,4.21 -3.05,8.13 -5.39,11.54 -2.35,3.44 -5.2,6.42 -8.25,8.68 -7.29,5.41 -15.82,6.9 -22.59,1.97 -1.9,-1.39 -2.56,-3.86 -1.71,-5.96 2.28,-5.69 1.61,-9.89 -0.44,-12.26 -1.01,-1.17 -2.39,-1.93 -3.87,-2.2 -1.51,-0.28 -3.18,-0.04 -4.74,0.77 -3.62,1.88 -6.67,6.83 -6.89,15.67 -0.37,14.9 7.88,24.93 19.34,29.55 6.22,2.5 13.42,3.47 20.75,2.83 7.38,-0.66 14.88,-2.95 21.65,-6.97 16.47,-9.78 28.71,-29.93 25.07,-61.75 -0.29,-2.57 1.4,-4.92 3.86,-5.5 17.01,-4.05 32.39,-1.23 43.78,5.22 6.62,3.74 11.92,8.72 15.48,14.32l0.22 0.39c3.55,5.72 5.31,12.09 4.88,18.48 -0.51,7.45 -3.97,14.84 -11.03,21.17 -2.07,1.86 -5.27,1.68 -7.13,-0.4 -0.78,-0.87 -1.2,-1.94 -1.27,-3.02 -0.46,-6.42 -2.64,-9.68 -5.39,-10.75 -1.24,-0.48 -2.68,-0.57 -4.17,-0.36 -1.69,0.25 -3.4,0.88 -4.97,1.8 -4.18,2.45 -7.41,6.81 -6.83,11.35 1.61,12.66 9.05,20.23 17.97,23.15 3.92,1.28 8.13,1.71 12.26,1.32 4.12,-0.39 8.2,-1.61 11.85,-3.62 8.48,-4.65 14.65,-13.71 13.9,-26.69 -0.61,-10.53 2.37,-20.88 7.51,-29.05 2.24,-3.57 4.91,-6.75 7.9,-9.38l0.02 -0.02 0 -0c0.15,-0.15 0.3,-0.27 0.46,-0.4l0 -0 0.04 -0.03c1.77,-1.5 3.65,-2.82 5.6,-3.91 5.77,-3.21 12.22,-4.5 18.8,-3.12 5.67,1.19 11.33,4.35 16.57,9.94 1.91,2.03 1.81,5.23 -0.22,7.15l-0.56 0.45c-5.16,3.65 -6.82,8.08 -6.16,11.81 0.28,1.59 0.97,3.09 1.95,4.33 1.01,1.28 2.36,2.35 3.92,3.04 4.06,1.83 9.76,1.25 15.71,-3.7 2.62,-2.18 4.38,-6.33 5.4,-10.81 1.34,-5.92 1.3,-12.06 0.19,-15.28 -10.45,-30.42 -46.1,-27.09 -73.97,-24.49l-3.41 0.32c-2.77,0.25 -5.23,-1.8 -5.48,-4.57 -0.25,-2.77 1.8,-5.23 4.57,-5.48l3.41 -0.32c5.18,-0.48 10.59,-0.99 16.09,-1.32 -2.18,-12.9 -6.03,-22.94 -13.52,-29.3 -8.37,-7.1 -21.73,-10.11 -43.01,-8.08 -2.19,0.34 -4.43,-0.81 -5.38,-2.92 -6.16,-13.66 -14.07,-24.57 -23.21,-32.96 -15.36,-14.1 -34.34,-21.2 -54.5,-22.52 -20.45,-1.33 -42.15,3.25 -62.63,12.48 -20,9.01 -38.81,22.46 -54.15,39.17 -8.09,8.82 -17.22,16.17 -27.11,21.9 -20.89,12.09 -45.1,16.93 -70.21,13.11 -24.9,-3.79 -50.64,-16.09 -74.78,-38.26 -16.22,-14.9 -31.75,-34.29 -45.82,-58.57 -1.4,-2.42 -0.57,-5.51 1.84,-6.91 2.41,-1.4 5.51,-0.57 6.91,1.84 13.52,23.35 28.4,41.95 43.92,56.19 22.56,20.72 46.45,32.19 69.44,35.69 11.43,1.73 22.66,1.5 33.39,-0.55 -11.95,-61.72 -8.88,-127.15 5.23,-190.87 15.43,-69.67 44.06,-137.31 80.63,-195.85 3.97,-6.35 8.13,-12.71 12.47,-19.04 41.05,-59.83 97.62,-116.16 161.53,-146.6 64.53,-30.74 136.46,-35.24 207.49,9.13 3.06,1.91 6.14,3.93 9.22,6.04 22.36,15.33 39.24,34.54 51.28,56.18 12.95,23.27 20.27,49.37 22.75,76.49l0.03 0.36c3.14,35.16 -7.65,68.45 -23.32,93.3 -15.84,25.12 -37,41.86 -54.28,43.67l-0.06 0.01c-0.49,0.08 -0.96,0.09 -1.43,0.03 -1.41,1.34 -2.92,2.83 -4.55,4.5 -5.16,5.31 -9.17,11.3 -12.53,20.72 -2.24,6.28 -4.19,14.03 -5.98,23.99zm62.14 108.24c-2.41,1.4 -5.51,0.57 -6.91,-1.84 -1.4,-2.42 -0.57,-5.51 1.84,-6.91 9.63,-5.6 17.5,-5.5 23.04,-2.11 3.38,2.07 5.77,5.3 7.1,9.19 1.21,3.53 1.53,7.65 0.92,11.9 -1.6,10.96 -9.55,23.34 -24.89,29.12 -2.61,0.98 -5.53,-0.34 -6.51,-2.95 -0.99,-2.61 0.34,-5.53 2.95,-6.51 11.42,-4.3 17.29,-13.23 18.44,-21.08 0.39,-2.68 0.21,-5.18 -0.49,-7.23 -0.57,-1.68 -1.52,-3.03 -2.78,-3.8 -2.53,-1.55 -6.76,-1.22 -12.71,2.23zm-40.78 239.21c0.19,-0.1 0.38,-0.19 0.59,-0.27 22.27,-8.71 42.72,-18.53 62.19,-33.58 19.49,-15.07 38.16,-35.49 56.95,-65.43 10.91,-17.4 16.28,-36.59 16.76,-55.85 0.51,-20.37 -4.4,-40.85 -13.95,-59.44 -5.39,-10.5 -7.51,-14.29 -7.66,-14.07 -2.39,3.64 -3.1,14.86 -3,28.24 0.09,11.54 -2.66,19.9 -6.32,26.15 -3.64,6.25 -8.06,10.25 -11.44,13.26l-0.4 0.33c-2.89,2.36 -5.47,2.05 -7.77,-0.53l-0.42 -0.54c-0.47,-0.7 -0.75,-1.48 -0.84,-2.28 -0.77,-3.9 0.16,-10.3 1.2,-17.5 1.14,-7.81 2.44,-16.82 2.51,-21.49 -1.33,1.54 -2.78,3.59 -4.24,5.91 -5.67,9 -11.2,21.42 -12.01,26.38 -1.8,11 -2.45,21.96 -3.07,32.59 -1.51,25.57 -2.92,49.35 -19.34,70.01 -12.29,15.46 -28.05,26.92 -45.51,35.97 -13.45,6.97 -27.9,12.5 -42.55,17.34 11.75,5.31 24.61,10.32 38.31,14.8zm-443.8 40.08c-1.87,-2.06 -1.71,-5.26 0.36,-7.12 2.06,-1.87 5.26,-1.71 7.12,0.36 19.64,21.71 51.04,55.26 97.34,84.47 46.22,29.16 107.4,54.07 186.73,58.65 2.79,0.15 4.93,2.54 4.77,5.33 -0.15,2.79 -2.54,4.93 -5.33,4.77 -81.35,-4.7 -144.12,-30.26 -191.56,-60.19 -47.37,-29.89 -79.41,-64.11 -99.44,-86.26zm57.16 -4.4c-1.87,-2.07 -1.7,-5.28 0.38,-7.15 2.07,-1.87 5.28,-1.7 7.15,0.37 15.97,17.74 33.1,33.38 51.11,47.12 96.3,73.5 218.31,93.22 323.4,88.15 104.9,-5.06 192.52,-34.63 220.74,-60.02 2.04,-1.84 3.72,-3.62 5.02,-5.32 1.69,-2.22 4.87,-2.64 7.08,-0.95 2.22,1.69 2.64,4.87 0.95,7.09 -1.7,2.23 -3.81,4.47 -6.29,6.7 -29.51,26.56 -119.78,57.42 -227.03,62.59 -107.07,5.17 -231.5,-15.03 -330.01,-90.21 -18.52,-14.13 -36.12,-30.21 -52.49,-48.39zm71.91 -29.22c-1.1,-2.57 0.08,-5.55 2.65,-6.65 2.57,-1.1 5.55,0.08 6.66,2.65 10.68,24.74 42.75,61.77 98.85,90.37 40.52,20.65 93.45,36.8 159.72,40.63 2.79,0.15 4.92,2.54 4.77,5.33 -0.15,2.79 -2.54,4.92 -5.33,4.77 -67.88,-3.92 -122.17,-20.5 -163.76,-41.69 -58.49,-29.81 -92.19,-69.02 -103.56,-95.4zm381.64 132.9c-2.75,0.43 -5.35,-1.45 -5.78,-4.2 -0.44,-2.75 1.45,-5.35 4.2,-5.78 33.89,-5.47 76.15,-14.93 121.66,-39 45.54,-24.08 94.43,-62.83 141.64,-126.91 1.65,-2.25 4.82,-2.74 7.07,-1.09 2.25,1.65 2.74,4.82 1.09,7.07 -48.26,65.48 -98.36,105.16 -145.09,129.88 -46.75,24.72 -90.06,34.43 -124.79,40.03zm-208.25 -131.74c-2.19,-1.73 -2.55,-4.93 -0.81,-7.11 1.74,-2.19 4.93,-2.55 7.11,-0.81 16.2,12.9 45.17,22.18 76.72,28.37 42.99,8.44 90.42,11.05 117.47,9.34 2.79,-0.17 5.2,1.94 5.37,4.73 0.17,2.79 -1.94,5.19 -4.73,5.37 -27.75,1.75 -76.25,-0.9 -120.05,-9.5 -32.95,-6.47 -63.46,-16.36 -81.07,-30.39zm-225.35 -205.45c3.06,-1.61 6.14,-3.11 9.26,-4.52 21.94,-9.89 45.3,-14.79 67.42,-13.35 22.4,1.46 43.54,9.39 60.72,25.17 9.37,8.6 17.55,19.53 24.06,33 4.95,-0.37 9.52,-0.47 13.75,-0.31 -16.28,-51.19 -54.8,-89.8 -92.05,-106.11 -13.24,-5.79 -26.25,-8.73 -37.91,-8.35 -11.23,0.36 -21.22,3.84 -28.92,10.83 -12.4,11.27 -19.19,31.88 -16.33,63.65zm150.22 -257.69c7.86,0.93 16.96,2.43 27.01,4.09 67.18,11.1 178.9,29.55 218.76,-76.32 -24.9,23.21 -47.99,37.62 -79.57,47.5 -36.06,11.29 -82.99,16.51 -156.6,22.2 -2.64,0.2 -5.87,1.07 -9.61,2.53zm134.54 147.58c-0.3,-0.23 -0.57,-0.39 -0.74,-0.38 -1.16,0.06 -0.29,0.18 0.74,0.38z"/>
   </g>
   <path class="fil5" d="M1573.06 880.53l-0.11 -57.51 -28.53 47.92 -5.19 0 -28.53 -47.59 0 57.17 -10.82 0 0 -78.93 9.25 0 32.92 55.48 32.48 -55.48 9.24 0 0.11 78.93 -10.82 0zm70.14 0.9c-7.97,0 -15.15,-1.75 -21.54,-5.24 -6.39,-3.49 -11.41,-8.33 -15.05,-14.49 -3.65,-6.16 -5.47,-13.04 -5.47,-20.63 0,-7.59 1.82,-14.47 5.47,-20.63 3.65,-6.17 8.67,-10.99 15.05,-14.49 6.39,-3.49 13.57,-5.24 21.54,-5.24 7.89,0 15.03,1.75 21.42,5.24 6.39,3.5 11.39,8.31 15,14.44 3.61,6.13 5.41,13.02 5.41,20.69 0,7.67 -1.8,14.57 -5.41,20.69 -3.61,6.13 -8.6,10.94 -15,14.43 -6.39,3.5 -13.53,5.24 -21.42,5.24zm0 -10.04c5.79,0 10.99,-1.31 15.62,-3.95 4.63,-2.63 8.27,-6.26 10.94,-10.88 2.67,-4.62 4,-9.79 4,-15.5 0,-5.71 -1.33,-10.88 -4,-15.5 -2.67,-4.63 -6.31,-8.25 -10.94,-10.88 -4.62,-2.63 -9.83,-3.95 -15.62,-3.95 -5.79,0 -11.03,1.31 -15.73,3.95 -4.7,2.63 -8.38,6.26 -11.05,10.88 -2.67,4.62 -4,9.79 -4,15.5 0,5.71 1.33,10.88 4,15.5 2.67,4.63 6.35,8.25 11.05,10.88 4.7,2.63 9.94,3.95 15.73,3.95zm132.27 9.13l-0.11 -57.51 -28.53 47.92 -5.19 0 -28.53 -47.59 0 57.17 -10.82 0 0 -78.93 9.25 0 32.92 55.48 32.48 -55.48 9.24 0 0.11 78.93 -10.82 0zm164.97 -40.93c4.59,1.28 8.2,3.59 10.82,6.93 2.63,3.35 3.95,7.57 3.95,12.69 0,6.84 -2.57,12.1 -7.72,15.79 -5.15,3.68 -12.65,5.52 -22.49,5.52l-37.66 0 0 -78.93 35.41 0c9.02,0 15.99,1.8 20.92,5.41 4.93,3.61 7.39,8.61 7.39,15 0,4.14 -0.96,7.71 -2.88,10.71 -1.92,3.01 -4.49,5.3 -7.73,6.88zm-41.83 -28.86l0 25.26 23.11 0c5.79,0 10.24,-1.07 13.36,-3.21 3.12,-2.14 4.68,-5.28 4.68,-9.41 0,-4.14 -1.56,-7.27 -4.68,-9.42 -3.12,-2.14 -7.57,-3.21 -13.36,-3.21l-23.11 0zm25.93 60.66c6.39,0 11.2,-1.05 14.44,-3.16 3.23,-2.1 4.85,-5.41 4.85,-9.92 0,-8.79 -6.43,-13.19 -19.28,-13.19l-25.93 0 0 26.27 25.93 0zm98.44 -10.6l-41.94 0 -8.69 19.73 -11.61 0 35.75 -78.93 11.16 0 35.85 78.93 -11.84 0 -8.68 -19.73zm-3.95 -9.02l-17.03 -38.68 -17.02 38.68 34.05 0zm89.31 -12.18c4.59,1.28 8.2,3.59 10.82,6.93 2.63,3.35 3.95,7.57 3.95,12.69 0,6.84 -2.57,12.1 -7.72,15.79 -5.15,3.68 -12.65,5.52 -22.49,5.52l-37.66 0 0 -78.93 35.41 0c9.02,0 15.99,1.8 20.92,5.41 4.93,3.61 7.39,8.61 7.39,15 0,4.14 -0.96,7.71 -2.88,10.71 -1.92,3.01 -4.49,5.3 -7.73,6.88zm-41.83 -28.86l0 25.26 23.11 0c5.79,0 10.24,-1.07 13.36,-3.21 3.12,-2.14 4.68,-5.28 4.68,-9.41 0,-4.14 -1.56,-7.27 -4.68,-9.42 -3.12,-2.14 -7.57,-3.21 -13.36,-3.21l-23.11 0zm25.93 60.66c6.39,0 11.2,-1.05 14.44,-3.16 3.23,-2.1 4.85,-5.41 4.85,-9.92 0,-8.79 -6.43,-13.19 -19.28,-13.19l-25.93 0 0 26.27 25.93 0zm76.67 -18.15l0 27.29 -11.16 0 0 -27.51 -31.35 -51.42 12.07 0 25.26 41.61 25.37 -41.61 11.16 0 -31.35 51.64zm108.36 28.19c-7.89,0 -15.01,-1.75 -21.37,-5.24 -6.35,-3.49 -11.33,-8.31 -14.94,-14.43 -3.61,-6.13 -5.41,-13.02 -5.41,-20.69 0,-7.67 1.8,-14.57 5.41,-20.69 3.61,-6.13 8.61,-10.94 15,-14.44 6.39,-3.49 13.53,-5.24 21.42,-5.24 6.17,0 11.8,1.03 16.91,3.1 5.11,2.07 9.47,5.13 13.08,9.19l-7.33 7.1c-5.94,-6.24 -13.34,-9.36 -22.21,-9.36 -5.86,0 -11.16,1.31 -15.9,3.95 -4.74,2.63 -8.44,6.26 -11.11,10.88 -2.67,4.62 -4,9.79 -4,15.5 0,5.71 1.33,10.88 4,15.5 2.67,4.63 6.37,8.25 11.11,10.88 4.74,2.63 10.04,3.95 15.9,3.95 8.79,0 16.2,-3.16 22.21,-9.47l7.33 7.1c-3.61,4.06 -7.99,7.14 -13.14,9.24 -5.15,2.11 -10.8,3.16 -16.97,3.16zm94.61 -20.63l-41.94 0 -8.69 19.73 -11.61 0 35.75 -78.93 11.16 0 35.85 78.93 -11.84 0 -8.68 -19.73zm-3.95 -9.02l-17.03 -38.68 -17.02 38.68 34.05 0zm88.97 28.75l-17.03 -24.24c-2.11,0.15 -3.76,0.22 -4.96,0.22l-19.51 0 0 24.02 -11.28 0 0 -78.93 30.78 0c10.22,0 18.26,2.44 24.13,7.33 5.86,4.89 8.79,11.62 8.79,20.19 0,6.09 -1.5,11.28 -4.51,15.56 -3,4.29 -7.29,7.4 -12.85,9.36l18.72 26.5 -12.29 0zm-22.33 -33.6c7.14,0 12.59,-1.54 16.35,-4.62 3.76,-3.09 5.64,-7.48 5.64,-13.19 0,-5.71 -1.88,-10.09 -5.64,-13.14 -3.76,-3.04 -9.21,-4.57 -16.35,-4.57l-19.17 0 0 35.52 19.17 0zm108.81 23.79l0 9.81 -57.28 0 0 -78.93 55.7 0 0 9.81 -44.43 0 0 24.24 39.58 0 0 9.59 -39.58 0 0 25.48 46 0zm98.89 -9.92l-41.94 0 -8.69 19.73 -11.61 0 35.75 -78.93 11.16 0 35.85 78.93 -11.84 0 -8.68 -19.73zm-3.95 -9.02l-17.03 -38.68 -17.02 38.68 34.05 0zm89.76 -11.16l10.82 0 0 30.78c-3.91,3.23 -8.46,5.71 -13.64,7.44 -5.19,1.73 -10.6,2.59 -16.24,2.59 -7.97,0 -15.15,-1.75 -21.54,-5.24 -6.39,-3.49 -11.41,-8.31 -15.05,-14.43 -3.65,-6.13 -5.47,-13.02 -5.47,-20.69 0,-7.67 1.82,-14.59 5.47,-20.75 3.65,-6.17 8.68,-10.97 15.11,-14.44 6.43,-3.46 13.66,-5.18 21.71,-5.18 6.31,0 12.05,1.03 17.19,3.1 5.15,2.07 9.53,5.09 13.14,9.07l-6.99 6.99c-6.31,-6.09 -13.94,-9.13 -22.89,-9.13 -6.01,0 -11.41,1.29 -16.18,3.89 -4.78,2.59 -8.52,6.2 -11.22,10.82 -2.71,4.62 -4.06,9.83 -4.06,15.62 0,5.71 1.35,10.88 4.06,15.5 2.71,4.63 6.45,8.25 11.22,10.88 4.77,2.63 10.13,3.95 16.07,3.95 7.07,0 13.23,-1.69 18.5,-5.07l0 -25.71zm89.64 30.11l0 9.81 -57.28 0 0 -78.93 55.7 0 0 9.81 -44.43 0 0 24.24 39.58 0 0 9.59 -39.58 0 0 25.48 46 0zm86.15 -69.12l0 78.93 -9.24 0 -47.36 -58.86 0 58.86 -11.28 0 0 -78.93 9.25 0 47.36 58.86 0 -58.86 11.27 0zm58.97 79.83c-7.89,0 -15.01,-1.75 -21.37,-5.24 -6.35,-3.49 -11.33,-8.31 -14.94,-14.43 -3.61,-6.13 -5.41,-13.02 -5.41,-20.69 0,-7.67 1.8,-14.57 5.41,-20.69 3.61,-6.13 8.61,-10.94 15,-14.44 6.39,-3.49 13.53,-5.24 21.42,-5.24 6.17,0 11.8,1.03 16.91,3.1 5.11,2.07 9.47,5.13 13.08,9.19l-7.33 7.1c-5.94,-6.24 -13.34,-9.36 -22.21,-9.36 -5.86,0 -11.16,1.31 -15.9,3.95 -4.74,2.63 -8.44,6.26 -11.11,10.88 -2.67,4.62 -4,9.79 -4,15.5 0,5.71 1.33,10.88 4,15.5 2.67,4.63 6.37,8.25 11.11,10.88 4.74,2.63 10.04,3.95 15.9,3.95 8.79,0 16.2,-3.16 22.21,-9.47l7.33 7.1c-3.61,4.06 -7.99,7.14 -13.14,9.24 -5.15,2.11 -10.8,3.16 -16.97,3.16zm75.1 -28.19l0 27.29 -11.16 0 0 -27.51 -31.35 -51.42 12.07 0 25.26 41.61 25.37 -41.61 11.16 0 -31.35 51.64zm-1170.45 28.53l-10.49 -10.49c-6.99,6.77 -15.79,10.15 -26.38,10.15 -5.26,0 -10,-0.87 -14.21,-2.59 -4.21,-1.73 -7.5,-4.15 -9.87,-7.27 -2.37,-3.12 -3.55,-6.67 -3.55,-10.65 0,-4.81 1.48,-9.08 4.45,-12.8 2.97,-3.72 7.88,-7.54 14.71,-11.45 -3.46,-3.46 -5.9,-6.57 -7.33,-9.36 -1.43,-2.78 -2.14,-5.68 -2.14,-8.68 0,-5.34 1.94,-9.62 5.81,-12.85 3.87,-3.23 9.04,-4.85 15.51,-4.85 6.01,0 10.78,1.47 14.32,4.4 3.53,2.93 5.3,6.95 5.3,12.07 0,3.98 -1.3,7.55 -3.89,10.71 -2.6,3.16 -6.9,6.47 -12.91,9.92l19.51 19.39c2.26,-4.28 3.87,-9.06 4.85,-14.32l8.68 2.82c-1.35,6.91 -3.64,12.93 -6.88,18.04l10.6 10.6 -6.09 7.22zm-33.49 -72.95c-3.53,0 -6.3,0.88 -8.29,2.65 -1.99,1.77 -2.99,4.08 -2.99,6.93 0,2.03 0.55,3.98 1.63,5.86 1.09,1.88 3.21,4.44 6.37,7.67 5.19,-2.93 8.77,-5.45 10.77,-7.55 1.99,-2.11 2.99,-4.4 2.99,-6.88 0,-2.63 -0.92,-4.74 -2.76,-6.32 -1.84,-1.58 -4.42,-2.37 -7.72,-2.37zm-2.71 63.59c7.82,0 14.25,-2.48 19.28,-7.44l-22.44 -22.33c-5.41,3.01 -9.19,5.81 -11.33,8.4 -2.14,2.59 -3.21,5.51 -3.21,8.74 0,3.76 1.64,6.8 4.9,9.13 3.27,2.33 7.54,3.49 12.8,3.49z"/>
  </g>
 </g>
</svg>
