<?xml version="1.0" encoding="UTF-8"?>
<!DOCTYPE svg PUBLIC "-//W3C//DTD SVG 1.1//EN" "http://www.w3.org/Graphics/SVG/1.1/DTD/svg11.dtd">
<!-- Creator: CorelDRAW -->
<svg xmlns="http://www.w3.org/2000/svg" xml:space="preserve" width="52.8825mm" height="42.5331mm" version="1.1" style="shape-rendering:geometricPrecision; text-rendering:geometricPrecision; image-rendering:optimizeQuality; fill-rule:evenodd; clip-rule:evenodd"
viewBox="0 0 1647.42 1325.01"
 xmlns:xlink="http://www.w3.org/1999/xlink"
 xmlns:xodm="http://www.corel.com/coreldraw/odm/2003">
 <defs>
  <style type="text/css">
   <![CDATA[
    .fil3 {fill:#FEFEFE}
    .fil2 {fill:#175B5C}
    .fil0 {fill:#175B5C}
    .fil1 {fill:#E4AFA3}
    .fil4 {fill:#F7D6C1}
    .fil7 {fill:#175B5C;fill-rule:nonzero}
    .fil5 {fill:#175B5C;fill-rule:nonzero}
    .fil6 {fill:#E4AFA3;fill-rule:nonzero}
   ]]>
  </style>
 </defs>
 <g id="Слой_x0020_1">
  <metadata id="CorelCorpID_0Corel-Layer"/>
  <g id="_2410679019968">
   <g>
    <g>
     <path class="fil0" d="M920.51 1053.25l0 91.48c0,2.24 0,4.28 0,6.31 0,1.98 0.13,3.88 0.46,5.72 0.33,1.91 1.25,3.69 2.83,5.33 1.52,1.64 4.01,2.5 7.37,2.5 2.7,0 6.58,-0.53 11.58,-1.58l0 8.62c-4.47,1.91 -8.62,3.29 -12.43,4.08 -3.82,0.73 -7.76,1.12 -11.84,1.12 -3.75,0 -7.17,-0.53 -10.45,-1.51 -3.22,-1.05 -6.12,-2.5 -8.68,-4.28 -4.74,-3.55 -7.69,-9.67 -8.81,-18.28l-3.48 3.62c-16.27,16.87 -39.78,24.79 -62.14,24.79 -14.34,0 -26.69,-4.49 -37.16,-13.41 -10.44,-8.9 -15.65,-20.45 -15.65,-34.73 0,-13.88 3.21,-24.61 9.73,-32.29 6.5,-7.64 14.4,-12.9 23.68,-15.85 23.16,-7.36 48.87,-7.49 69.7,-13.94 5.2,-1.61 9.07,-4.01 11.58,-7.17 2.5,-3.16 3.75,-7.76 3.75,-13.94 0,-14.67 -4.01,-26.04 -12.04,-34.13 -8.02,-8.09 -19.41,-11.67 -34,-12.1 -21.22,-0.63 -41.35,5.59 -44.62,21.86 -4.11,20.42 -23.93,11.25 -15.27,-5.31 7.77,-14.84 31.86,-33.13 71.99,-33.13 20.78,0 36.63,5.52 47.55,16.64 10.91,11.11 16.37,27.69 16.37,49.59zm-31.57 83.98l0 -57.54 -13.88 2.89c-16.46,2.89 -32.76,4.61 -48.2,11.25 -6.33,2.72 -11.67,6.89 -15.98,12.43 -4.29,5.5 -6.45,12.56 -6.45,21.18 0,12.3 3.37,21.55 10.13,27.82 17.36,16.09 47.9,9.95 63.79,-5.66l4.21 -4.08 4.28 -4.6c1.12,-1.51 1.84,-2.76 2.1,-3.69z"/>
     <path class="fil1" d="M1239.14 1084.78c0,-14.14 2.5,-26.9 7.43,-38.34 4.93,-11.45 12.04,-21.44 21.31,-30.06 9.21,-8.62 19.86,-15.19 31.9,-19.73 11.97,-4.54 25.19,-6.84 39.59,-6.84 17.95,0 33.87,3.88 47.68,11.64 13.81,7.76 24.6,19.01 32.29,33.6 7.69,14.67 11.58,31.64 11.58,51.04 0,12.5 -2.11,24.6 -6.38,36.44 -4.21,11.78 -10.52,22.36 -18.94,31.7 -8.42,9.27 -18.94,16.58 -31.57,21.84 -12.56,5.26 -26.51,7.89 -41.76,7.89 -16.97,0 -32.62,-3.95 -46.96,-11.84 -14.34,-7.89 -25.58,-19.4 -33.81,-34.59 -8.22,-15.12 -12.36,-32.75 -12.36,-52.75zm72.78 -79.62c-14.85,4.95 -25.54,13.02 -32,24.2 -6.53,11.19 -9.59,23.86 -9.27,38.1 0.38,14.23 2.9,28.44 7.6,42.54 4.6,13.79 10.76,25.59 18.46,35.58 7.74,9.9 17.22,17.13 28.43,21.64 11.27,4.49 23.63,4.53 36.98,0.07 13.17,-4.39 22.64,-12.55 28.31,-24.49 5.73,-11.9 8.35,-25.04 7.99,-39.42 -0.42,-14.35 -2.49,-27.18 -6.25,-38.47 -3.1,-9.3 -7.09,-18.16 -11.92,-26.6 -4.85,-8.51 -10.65,-15.72 -17.31,-21.75 -6.65,-6.03 -14.37,-10.25 -23.02,-12.7 -8.65,-2.45 -18.02,-2.03 -27.99,1.3z"/>
     <path class="fil1" d="M1455.64 1084.78c0,-14.14 2.5,-26.9 7.43,-38.34 4.93,-11.45 12.04,-21.44 21.31,-30.06 9.21,-8.62 19.86,-15.19 31.9,-19.73 11.97,-4.54 25.19,-6.84 39.59,-6.84 17.95,0 33.87,3.88 47.68,11.64 13.81,7.76 24.6,19.01 32.29,33.6 7.69,14.67 11.57,31.64 11.57,51.04 0,12.5 -2.1,24.6 -6.38,36.44 -4.21,11.78 -10.52,22.36 -18.94,31.7 -8.42,9.27 -18.94,16.58 -31.57,21.84 -12.56,5.26 -26.51,7.89 -41.76,7.89 -16.97,0 -32.62,-3.95 -46.96,-11.84 -14.34,-7.89 -25.58,-19.4 -33.81,-34.59 -8.22,-15.12 -12.36,-32.75 -12.36,-52.75zm72.78 -79.62c-14.85,4.95 -25.54,13.02 -32,24.2 -6.53,11.19 -9.59,23.86 -9.27,38.1 0.38,14.23 2.9,28.44 7.6,42.54 4.6,13.79 10.76,25.59 18.46,35.58 7.74,9.9 17.22,17.13 28.43,21.64 11.27,4.49 23.63,4.53 36.98,0.07 13.17,-4.39 22.64,-12.55 28.3,-24.49 5.74,-11.9 8.35,-25.04 8,-39.42 -0.42,-14.35 -2.49,-27.18 -6.25,-38.47 -3.1,-9.3 -7.09,-18.16 -11.92,-26.6 -4.85,-8.51 -10.65,-15.72 -17.31,-21.75 -6.65,-6.03 -14.37,-10.25 -23.02,-12.7 -8.65,-2.45 -18.01,-2.03 -27.99,1.3z"/>
     <path class="fil0" d="M243.98 1084.78c0,-14.14 2.5,-26.9 7.43,-38.34 4.93,-11.45 12.04,-21.44 21.31,-30.06 9.21,-8.62 19.86,-15.19 31.9,-19.73 11.97,-4.54 25.19,-6.84 39.59,-6.84 17.96,0 33.87,3.88 47.69,11.64 13.81,7.76 24.6,19.01 32.29,33.6 7.7,14.67 11.58,31.64 11.58,51.04 0,12.5 -2.1,24.6 -6.38,36.44 -4.21,11.78 -10.52,22.36 -18.94,31.7 -8.42,9.27 -18.94,16.58 -31.57,21.84 -12.56,5.26 -26.51,7.89 -41.76,7.89 -16.97,0 -32.62,-3.95 -46.96,-11.84 -14.34,-7.89 -25.58,-19.4 -33.81,-34.59 -8.22,-15.12 -12.36,-32.75 -12.36,-52.75zm72.78 -79.62c-14.85,4.95 -25.54,13.02 -32,24.2 -6.53,11.19 -9.59,23.86 -9.27,38.1 0.38,14.23 2.9,28.44 7.6,42.54 4.6,13.79 10.76,25.59 18.46,35.58 7.74,9.9 17.23,17.13 28.43,21.64 11.27,4.49 23.63,4.53 36.98,0.07 13.17,-4.39 22.65,-12.55 28.31,-24.49 5.73,-11.9 8.35,-25.04 8,-39.42 -0.42,-14.35 -2.49,-27.18 -6.26,-38.47 -3.1,-9.3 -7.09,-18.16 -11.92,-26.6 -4.85,-8.51 -10.65,-15.72 -17.31,-21.75 -6.65,-6.03 -14.37,-10.25 -23.02,-12.7 -8.65,-2.45 -18.01,-2.03 -27.99,1.3z"/>
     <path class="fil1" d="M1036.57 1064.66l0 104.04c31.96,0 59.2,8.32 92.14,-8.09 17.18,-8.59 29.67,-21.36 37.3,-38.32 7.21,-15.9 11.15,-36.91 11.64,-57.64l33.13 0c-0.33,11.88 -2.08,23.66 -5.16,34.69 -3.39,12.38 -8.36,23.29 -14.8,32.78 -6.45,9.5 -14.02,18.14 -22.78,26 -6.61,5.93 -14.13,10.74 -22.5,14.41 -3.68,1.53 -7.63,3 -11.93,4.36 -4.29,1.41 -8.64,2.49 -13,3.34 -4.35,0.79 -8.65,1.52 -12.94,2.15 -4.24,0.62 -8.14,0.9 -11.64,0.9l-30.46 0.68 -66.07 0 0 -119.3 37.06 0z"/>
     <path class="fil1" d="M1036.57 965.97c31.96,0 55.6,-8.33 88.54,8.09 17.19,8.57 29.64,21.38 37.3,38.31 14.89,32.93 14.89,77 0,109.92 -7.66,16.94 -20.11,29.75 -37.3,38.32 -32.93,16.42 -56.58,8.09 -88.54,8.09 0,-67.58 0,-135.16 0,-202.73zm154.26 36.57c-6.45,-9.5 -14.02,-18.14 -22.78,-26 -6.61,-5.94 -14.13,-10.74 -22.5,-14.41 -3.68,-1.52 -7.63,-2.99 -11.93,-4.36 -4.29,-1.41 -8.64,-2.49 -13,-3.33 -4.35,-0.79 -8.65,-1.52 -12.94,-2.15 -4.24,-0.62 -8.14,-0.9 -11.64,-0.9l-30.46 -0.68 -66.07 0c0,77.75 0,155.49 0,233.24l66.07 0 30.46 -0.68c3.5,0 7.4,-0.28 11.64,-0.9 4.29,-0.63 8.59,-1.36 12.94,-2.15 4.35,-0.85 8.7,-1.93 13,-3.34 4.3,-1.36 8.25,-2.83 11.93,-4.36 8.37,-3.67 15.88,-8.48 22.5,-14.41 8.76,-7.86 16.33,-16.5 22.78,-26 25.97,-38.29 25.97,-91.3 0,-129.59z"/>
     <path class="fil0" d="M722.05 930.57l0 217.77c0,2.22 0,4.28 0,6.31 0,1.98 0.13,3.88 0.46,5.72 0.33,1.91 1.25,3.69 2.83,5.33 1.51,1.64 4.01,2.5 7.37,2.5 2.69,0 6.58,-0.53 11.58,-1.58l0 8.62c-4.48,1.91 -8.62,3.29 -12.43,4.08 -3.81,0.73 -7.76,1.12 -11.84,1.12 -3.75,0 -7.17,-0.53 -10.46,-1.51 -3.22,-1.05 -6.12,-2.5 -8.68,-4.28 -4.73,-3.55 -7.69,-9.67 -8.81,-18.28l0 -214.78 29.99 -11.01z"/>
     <path class="fil0" d="M624.94 989.94l0 143.27 0 14.98c0,8.83 -2.5,21.31 10.34,21.31 2.69,0 6.58,-0.53 11.58,-1.58l0 8.62c-4.47,1.91 -8.62,3.29 -12.43,4.08 -10.85,2.06 -21.62,1.81 -30.98,-4.67 -9.26,-6.95 -10.07,-21.37 -10.07,-31.31 -4.21,8.09 -9.41,14.8 -15.52,20.19 -6.05,5.39 -13.15,9.54 -21.24,12.5 -8.09,2.96 -16.77,4.4 -25.98,4.4 -21.97,0 -38.36,-6.04 -49.07,-18.08 -10.73,-12.09 -16.04,-31.38 -16.04,-57.81l0 -115.95 31.57 0.07 0 106.54c0,14.14 1.52,26.11 4.6,35.84 3.09,9.73 8.16,17.23 15.26,22.36 7.04,5.13 16.38,7.69 27.88,7.69 12.5,0 22.23,-3.09 29.27,-9.27 7.1,-6.12 12.03,-14.14 14.93,-24 2.88,-9.8 4.34,-19.93 4.34,-30.32l0 -108.92 31.57 0.07z"/>
     <path class="fil2" d="M37.06 965.97c31.96,0 55.6,-8.33 88.54,8.09 17.19,8.57 29.64,21.38 37.3,38.31 14.89,32.93 14.89,77 0,109.92 -7.66,16.94 -20.11,29.75 -37.3,38.32 -32.93,16.42 -56.58,8.09 -88.54,8.09 0,-67.58 0,-135.16 0,-202.73zm154.26 36.57c-6.45,-9.5 -14.02,-18.14 -22.78,-26 -6.62,-5.94 -14.13,-10.74 -22.5,-14.41 -3.68,-1.52 -7.63,-2.99 -11.93,-4.36 -4.3,-1.41 -8.65,-2.49 -13,-3.33 -4.35,-0.79 -8.65,-1.52 -12.94,-2.15 -4.24,-0.62 -8.14,-0.9 -11.64,-0.9l-30.46 -0.68 -66.07 0c0,77.75 0,155.49 0,233.24l66.07 0 30.46 -0.68c3.5,0 7.4,-0.28 11.64,-0.9 4.29,-0.63 8.59,-1.36 12.94,-2.15 4.35,-0.85 8.7,-1.93 13,-3.34 4.3,-1.36 8.25,-2.83 11.93,-4.36 8.37,-3.67 15.88,-8.48 22.5,-14.41 8.76,-7.86 16.33,-16.5 22.78,-26 25.97,-38.29 25.97,-91.3 0,-129.59z"/>
    </g>
    <g>
     <circle class="fil3" cx="775.44" cy="403.69" r="393.93"/>
     <path class="fil4" d="M718.05 366.19c-5.95,-2.35 -31.39,29.45 -12.85,62.02 14.98,26.32 51.45,41.62 71.52,70.23 2.9,-7.31 -3.56,-33.67 27.01,-31.94 0.11,-0.07 6.42,-30.22 5.91,-32.45 -4.02,-17.37 -13.14,-19.93 0.08,-52.43 0.34,-0.84 -12.32,-13.58 -12.29,1 0.02,10.62 -6.33,-8.17 -14.88,8.5 -14.89,29.03 -49.63,0.76 -64.5,-24.93z"/>
     <path class="fil4" d="M775.44 9.76c217.56,0 393.93,176.37 393.93,393.93 0,53.71 1.92,77.78 -27.66,145.28 -20.62,24.55 -64.16,68.04 -116.04,79.82 -61.24,13.9 -118.59,8.46 -156.98,-11.05 42.95,-10.08 151.2,-99.4 81,-182.48 13.53,-45.77 -19.74,-109.76 -104.23,-80.86 -5.49,-15.73 10.93,-44.27 20.52,-46.94 63.74,-18.75 69.59,-113.67 33.41,-168.87 -28.5,-43.49 -84.46,-58.62 -117.04,-61.2 -53.69,-4.25 -115.71,24.52 -186.41,109.22 -51.5,61.71 -108.84,176.25 -89.76,330.39 -55.88,21.25 -125.51,-42.78 -124.66,-113.33 2.62,-217.55 176.37,-393.93 393.93,-393.93z"/>
     <path class="fil5" d="M775.44 0c111.47,0 212.4,45.19 285.45,118.24 73.05,73.05 118.24,173.98 118.24,285.45 0,111.47 -45.19,212.4 -118.24,285.45 -73.05,73.05 -173.98,118.24 -285.45,118.24 -111.47,0 -212.4,-45.19 -285.45,-118.24 -73.05,-73.05 -118.24,-173.98 -118.24,-285.45 0,-111.47 45.19,-212.4 118.24,-285.45 73.05,-73.05 173.98,-118.24 285.45,-118.24zm271.65 132.04c-69.52,-69.51 -165.56,-112.52 -271.65,-112.52 -106.09,0 -202.13,43 -271.65,112.52 -69.52,69.52 -112.52,165.56 -112.52,271.65 0,106.09 43,202.13 112.52,271.65 69.52,69.51 165.56,112.52 271.65,112.52 106.09,0 202.13,-43 271.65,-112.52 69.52,-69.52 112.52,-165.56 112.52,-271.65 0,-106.09 -43,-202.13 -112.52,-271.65z"/>
     <path class="fil6" d="M873.34 712.36c-2.15,0.12 -3.99,-1.51 -4.12,-3.66 -0.12,-2.15 1.51,-3.99 3.66,-4.12 24.05,-1.43 48.59,-5.07 72.49,-11.9 23.85,-6.81 47.06,-16.8 68.5,-30.93 1.79,-1.18 4.21,-0.68 5.38,1.12 1.18,1.79 0.68,4.21 -1.11,5.38 -22.19,14.62 -46.11,24.93 -70.63,31.93 -24.46,6.99 -49.57,10.71 -74.17,12.17zm-327.38 -10c-1.7,-1.31 -2.02,-3.76 -0.7,-5.46 1.31,-1.7 3.76,-2.02 5.46,-0.7l2.37 1.83c41.68,32.28 117.24,90.8 305.04,69.59 2.14,-0.23 4.07,1.31 4.3,3.45 0.23,2.14 -1.31,4.07 -3.45,4.3 -190.92,21.56 -268.09,-38.21 -310.66,-71.17l-2.37 -1.83zm40.35 -84.12c-1.1,-1.84 -0.5,-4.24 1.34,-5.34 1.84,-1.1 4.23,-0.5 5.34,1.34 12.31,20.5 25.33,35.8 40.85,49.06 15.61,13.34 33.84,24.69 56.47,37.26 1.88,1.04 2.55,3.42 1.51,5.29 -1.04,1.88 -3.42,2.55 -5.3,1.51 -23.06,-12.79 -41.68,-24.41 -57.75,-38.14 -16.15,-13.8 -29.69,-29.7 -42.47,-50.98zm66.88 15.49c-1.53,-1.51 -1.55,-3.98 -0.04,-5.51 1.5,-1.53 3.98,-1.55 5.5,-0.04 18.96,18.71 41.59,34.74 65.86,46.99 24.08,12.15 49.78,20.56 75.12,24.16 2.13,0.3 3.62,2.26 3.33,4.39 -0.3,2.13 -2.26,3.62 -4.39,3.32 -26.21,-3.71 -52.74,-12.39 -77.57,-24.92 -24.97,-12.6 -48.27,-29.11 -67.81,-48.39zm69.83 -1.09c-1.53,-1.51 -1.55,-3.98 -0.04,-5.51 1.51,-1.53 3.98,-1.55 5.5,-0.04 18.25,18.01 49.6,29.94 86.21,35.33 38.19,5.63 81.92,4.1 122.48,-5.07 2.1,-0.47 4.18,0.85 4.65,2.94 0.47,2.1 -0.85,4.18 -2.95,4.65 -41.5,9.38 -86.26,10.94 -125.32,5.19 -38.15,-5.62 -71.05,-18.27 -90.54,-37.5zm-303.46 -108.1c-1.63,-1.4 -1.82,-3.86 -0.43,-5.49 1.4,-1.63 3.86,-1.83 5.5,-0.43 4.83,4.12 12.18,9.51 21.57,13.76 6.74,3.05 14.53,5.53 23.2,6.55 2.14,0.25 3.67,2.2 3.41,4.33 -0.25,2.14 -2.2,3.67 -4.33,3.41 -9.53,-1.12 -18.09,-3.85 -25.48,-7.19 -10.21,-4.63 -18.2,-10.47 -23.44,-14.95zm37.66 79.29c-0.54,-2.08 0.71,-4.2 2.79,-4.74 2.08,-0.54 4.2,0.71 4.74,2.79 1.75,6.77 3.44,12.34 7.09,18.3 3.72,6.08 9.53,12.75 19.56,21.74 1.6,1.43 1.74,3.89 0.31,5.49 -1.43,1.6 -3.89,1.74 -5.49,0.3 -10.67,-9.56 -16.93,-16.77 -21.03,-23.48 -4.17,-6.82 -6.05,-12.97 -7.97,-20.4zm23.24 6.48c-0.87,-1.97 0.02,-4.27 2,-5.14 1.97,-0.87 4.27,0.02 5.14,2 3.05,6.9 6.01,13.05 9.78,18.47l0.13 0.2c3.65,5.22 8.15,9.87 14.35,14.03 1.79,1.2 2.26,3.62 1.07,5.4 -1.2,1.79 -3.62,2.26 -5.4,1.07 -7.09,-4.76 -12.22,-10.07 -16.4,-16.05l-0.15 -0.2c-4.13,-5.94 -7.28,-12.48 -10.51,-19.78zm304.48 2.62c-1.56,-1.48 -1.62,-3.95 -0.14,-5.5 1.48,-1.56 3.95,-1.62 5.5,-0.14 4.6,4.37 16.24,8.83 28.99,12.27 14.95,4.04 31.12,6.57 39.37,5.95 2.15,-0.16 4.02,1.45 4.18,3.6 0.16,2.15 -1.45,4.02 -3.6,4.18 -9.05,0.68 -26.27,-1.95 -41.97,-6.2 -13.83,-3.74 -26.73,-8.83 -32.35,-14.16zm-209.69 -103.09c-1.5,1.54 -3.97,1.57 -5.5,0.07 -1.54,-1.5 -1.58,-3.97 -0.08,-5.51 9.44,-9.66 28.82,-20.12 49.83,-22.27 15.69,-1.6 32.36,1.37 46.66,12.6 1.69,1.33 1.99,3.79 0.66,5.48 -1.33,1.69 -3.79,1.98 -5.48,0.65 -12.5,-9.82 -27.19,-12.4 -41.08,-10.98 -19.09,1.95 -36.57,11.31 -45.01,19.95z"/>
     <path class="fil7" d="M679.64 266.87c0.54,-0.63 1.27,-1.09 2.12,-1.28 9.55,-5.67 17.34,-8.93 22.49,-9.33 56.13,-4.34 91.83,-8.29 118.91,-16.77 26.73,-8.36 45.23,-21.26 67.2,-43.51 1.5,-1.53 3.98,-1.55 5.5,-0.04 1.13,1.11 1.44,2.75 0.91,4.15 0.39,0.55 0.64,1.2 0.7,1.88 0.21,1.46 0.61,3.48 1.07,5.83 3.53,18.02 10.77,54.96 -16.2,88.07 6.76,-5.26 13.59,-12.95 19.52,-22.36 11.28,-17.89 19.06,-41.81 16.82,-67.02l-0.02 -0.28c-1.81,-19.83 -7.15,-38.89 -16.59,-55.86 -8.7,-15.64 -20.93,-29.53 -37.1,-40.63 -2.26,-1.55 -4.54,-3.04 -6.82,-4.47 -52.1,-32.55 -104.93,-29.21 -152.38,-6.6 -47.93,22.83 -90.45,65.21 -121.37,110.29 -3.27,4.76 -6.41,9.57 -9.42,14.39 -27.74,44.41 -49.45,95.69 -61.14,148.44 -8.96,40.45 -12.03,81.78 -7.41,121.56 10.31,-42.81 34.84,-85.42 63.42,-122.43 36.84,-47.71 80.78,-86.26 109.78,-104.05zm203.39 266.69c1.24,-1.75 3.68,-2.16 5.43,-0.92 1.75,1.25 2.16,3.68 0.92,5.43 -9.63,13.56 -22.15,23.91 -35.32,28.68 -6.63,2.4 -13.44,3.4 -20.14,2.72 -6.76,-0.69 -13.37,-3.09 -19.56,-7.48 -9.58,-6.8 -18.09,-18.4 -24.43,-35.88 -1.32,-3.65 -3.27,-7.47 -5.26,-11.36 -4.62,-9.05 -9.47,-18.56 -9.09,-30.61 0.25,-7.73 7.13,-15.7 14.39,-19.47 2.27,-1.18 4.64,-1.99 6.93,-2.29 2.49,-0.33 4.89,-0.05 7,0.98 -0.67,-3.41 -1.01,-6.81 -0.91,-9.98 0.11,-3.36 1.17,-6.61 2.25,-9.88l0.07 -0.18c1.36,-4.15 2.7,-8.32 1.18,-10.78 -14.17,-22.9 -3.07,-45.23 -0.82,-49.44 -1.17,-0.44 -2.15,-1.23 -3.12,-2.1l0.1 1.25c0.24,2.98 0.48,5.79 -1.01,7.78 -3.28,4.38 -6.27,3.89 -9.17,1.72 -0.87,-0.65 -1.56,-1.42 -2.25,-2.18l-0.37 -0.4c-3.48,4.14 -7.95,8.18 -12.42,11.31 -4.69,3.28 -9.5,5.64 -13.4,6.21 -6.62,0.97 -14.89,-3.46 -23.13,-10.71 -7.97,-7 -16.19,-16.78 -22.84,-26.65l-2.42 3.23c-14.72,19.57 -30.54,40.6 23.4,87.03 3.19,2.75 6.61,5.27 10.03,7.8 13.11,9.69 26.46,19.56 30.92,42.32 0.21,1.08 -1.05,9.8 -7.89,17.73 -1.49,1.73 -3.24,3.45 -5.3,5.11 14.71,1.64 27.82,7.71 33.72,24.9 1.25,3.64 1.4,10.09 0.06,16.01 -0.8,3.53 -2.14,6.98 -4.12,9.71 7.4,5.86 16.88,11.81 27.99,17.46 13.59,-4.21 27.14,-9 39.45,-15.37 12.54,-6.5 23.82,-14.68 32.53,-25.64 11.12,-13.99 12.14,-31.12 13.22,-49.54 0.5,-8.38 1.01,-17.03 2.46,-25.9 0.75,-4.59 5.51,-15.56 10.35,-23.22 1.74,-2.76 3.53,-5.17 5.2,-6.83 2.57,-2.55 5.26,-3.67 7.92,-2.65 0.84,0.34 1.59,0.85 2.24,1.58 3.38,3.82 1.68,15.48 0.28,25.15l-0.39 2.26c0.38,-0.54 0.74,-1.1 1.08,-1.69 2.21,-3.79 3.89,-8.94 3.83,-16.15 -0.09,-11.5 0.74,-21.53 3.43,-25.89 -0.27,-0.69 -0.36,-1.45 -0.19,-2.23 1.44,-6.82 4.31,-21.79 1.24,-37.41 -3.01,-15.27 -11.85,-31.32 -33.74,-41 -7.8,-3.45 -17.75,-5.48 -28.06,-5.79 -9.87,-0.3 -20.05,0.98 -28.94,4.09 -1.78,0.62 -3.72,1.35 -5.79,2.17 -1.56,0.61 -2.98,1.19 -4.27,1.75 -0.28,1.93 -0.56,3.96 -0.83,6.08 -0.82,6.32 -5.51,7.34 -11.4,6.58 -2.16,-0.28 -4.31,-0.78 -6.43,-1.26 -2.96,-0.69 -5.88,-1.36 -7.49,-1.18l-4.69 3.32c-0.04,0.49 -0.03,1.17 -0.02,1.84 0.05,2.73 0.1,5.4 -1.91,7.38 0.03,0.21 0.13,0.53 0.12,1 -0.05,1.44 -0.09,2.79 -0.76,4.07l-0.15 0.27c-1.24,2.27 -12.06,22.02 0.36,42.08 3.42,5.54 1.53,11.45 -0.39,17.29l-0.06 0.19c-0.91,2.77 -1.82,5.53 -1.89,7.66 -0.13,4.31 0.77,9.29 2.25,14.07 1.62,5.21 3.9,10.09 6.28,13.56l0.17 0.22c4.93,7.08 10.97,11.75 19.69,12.58 9.33,0.88 21.9,-2.39 39.54,-11.36 0.34,-0.17 0.72,-0.3 1.12,-0.37 2.12,-0.36 4.14,1.07 4.5,3.19 1.43,8.26 -9.04,13.83 -21.47,20.42 -10.49,5.57 -22.61,12 -28.21,20.19 -1.16,1.69 -2.55,2.76 -4.1,3.28 -3.21,1.05 -6.32,-0.3 -9.23,-3.34 -2.12,-2.21 -4.26,-5.45 -6.28,-9.24 -6.6,-12.41 -12.54,-31.99 -12.55,-40.83 -0,-3.28 -0.77,-5.01 -1.93,-5.6 -0.66,-0.34 -1.58,-0.41 -2.64,-0.27 -1.34,0.17 -2.84,0.71 -4.36,1.5 -5.15,2.67 -10.02,7.96 -10.18,12.79 -0.31,10.01 4.08,18.62 8.26,26.83 2.07,4.05 4.09,8.01 5.62,12.25 5.76,15.88 13.28,26.27 21.63,32.2 5.03,3.57 10.39,5.52 15.83,6.08 5.5,0.56 11.14,-0.28 16.69,-2.29 11.67,-4.23 22.89,-13.57 31.63,-25.88zm-74.99 -158.15l0.12 -0.08c0.08,-0.24 -0.48,-0.76 -0.5,-1.55 -0.04,-2.03 -0.07,-4.11 1.02,-6.19 0.28,-0.52 0.67,-0.99 1.19,-1.36 0.02,-0.01 6.88,-5.2 9.43,-5.49 2.91,-0.33 6.46,0.5 10.08,1.33 2.01,0.47 4.06,0.94 5.67,1.15 1.52,0.2 2.69,0.31 2.71,0.16 2.09,-16.16 4.37,-27.11 7.26,-35.21 3.02,-8.47 6.69,-13.92 11.42,-18.8 5.54,-5.7 9.38,-8.73 12.38,-11.08 2.01,-1.58 3.61,-2.83 4.93,-4.32 23.89,-26.8 21.86,-57.49 18.66,-76.56 -34.05,82.78 -122.11,68.23 -175.41,59.42 -14.83,-2.45 -26.86,-4.44 -33.56,-3.62 -27.46,16.75 -70.69,54.92 -107.4,102.46 -32.48,42.06 -59.59,91.34 -65.71,139.45 5.28,-1.65 10.37,-3.88 15.2,-6.68 6.93,-4.01 13.34,-9.18 19.05,-15.4 8.83,-9.62 19.08,-17.92 30.09,-24.56 -0.31,-0.49 -0.51,-1.06 -0.57,-1.67 -2.85,-28.09 3.43,-46.64 14.93,-57.09 7.37,-6.7 16.79,-10.02 27.28,-10.36 10.16,-0.33 21.33,2.16 32.56,7.08 31.25,13.68 63.56,46.45 76.21,89.74 7.3,1.28 12.96,3.87 17.38,7.62 7.31,6.21 10.99,15.32 12.99,26.8 4.76,-2.41 8.25,-5.36 10.76,-8.27 4.99,-5.79 6.21,-10.63 6.12,-11.13 -3.88,-19.81 -16,-28.76 -27.9,-37.56 -3.56,-2.63 -7.12,-5.26 -10.46,-8.14 -59.48,-51.19 -41.39,-75.25 -24.56,-97.62 1.4,-1.86 2.79,-3.71 4.17,-5.64 -5.09,-8.61 -8.7,-16.93 -9.62,-23.22 -0.66,-4.52 -0.01,-8.29 2.29,-10.9 1.42,-1.62 3.89,-1.77 5.51,-0.35 1.62,1.42 1.77,3.89 0.35,5.51 -0.65,0.74 -0.76,2.37 -0.43,4.62 0.95,6.5 5.59,16.02 11.93,25.68 6.44,9.82 14.59,19.64 22.44,26.54 6.62,5.82 12.75,9.45 16.85,8.85 2.69,-0.39 6.33,-2.24 10.07,-4.87 4.12,-2.88 8.23,-6.64 11.34,-10.45 3.65,-4.47 6.76,-3.68 9.68,-1.3l0.91 0.82 -0.19 -2.56c-0.25,-4.64 0.43,-8.73 5.41,-8.99 3.56,-0.19 5.38,1.5 7.12,3.11 0.36,0.33 0.7,0.64 0.8,0.69zm3.02 107.3c1.75,8.9 6.12,21.52 10.84,30.41 1.71,3.22 3.43,5.87 5,7.5 0.74,0.77 1.12,1.27 1.19,1.32 0.04,-0.02 -0.03,-0.07 0.1,-0.26 6.56,-9.6 19.28,-16.46 30.44,-22.38 -7.82,2.26 -14.47,3 -20.21,2.45 -11.42,-1.08 -19.16,-6.97 -25.36,-15.88l-0.17 -0.26c-0.62,-0.9 -1.23,-1.88 -1.83,-2.92zm36.69 -133.47c1.78,-0.7 3.79,-1.45 6.05,-2.24 9.81,-3.44 20.95,-4.85 31.72,-4.52 11.33,0.34 22.31,2.6 30.99,6.43 24.78,10.96 34.82,29.23 38.26,46.64 2.99,15.16 0.88,29.56 -0.7,37.73 3.26,1.54 7.06,6.17 11.48,14.79 7.94,15.46 12.03,32.52 11.6,49.51 -0.4,16.21 -4.91,32.36 -14.1,47 -15,23.9 -29.99,40.27 -45.71,52.42 -13.19,10.2 -26.82,17.38 -41.35,23.53 4.78,1.36 9.66,2.64 14.63,3.81 34.12,8.06 72.55,11.36 110.12,5.54 32.39,-5.02 63.83,-18.1 89.52,-36.34 25.14,-17.83 44.74,-40.56 54.3,-65.4 0.76,-2.01 3.01,-3.01 5.02,-2.25 2,0.77 3.01,3.02 2.24,5.02 -10.13,26.35 -30.72,50.3 -57.05,68.98 -26.64,18.91 -59.24,32.47 -92.84,37.68 -38.69,5.99 -78.13,2.63 -113.09,-5.63 -24.9,-5.88 -47.59,-14.27 -66.16,-23.54 -0.2,-0.08 -0.4,-0.18 -0.58,-0.29 -12.65,-6.36 -23.37,-13.11 -31.54,-19.75 -6.17,3.76 -12.25,3.78 -17,1.64 -2.37,-1.07 -4.41,-2.68 -5.95,-4.64 -1.57,-1.98 -2.65,-4.32 -3.09,-6.81 -0.79,-4.47 0.38,-9.41 4.34,-13.68 -1.9,-1.4 -3.8,-2.26 -5.66,-2.65 -3.12,-0.66 -6.26,-0.01 -9.11,1.58 -0.85,0.47 -1.68,1.03 -2.48,1.66 -0.16,0.46 -0.3,0.95 -0.4,1.45 -1,4.59 0.17,10.41 2.98,15.76 2.85,5.41 7.36,10.23 13.01,12.72l0.18 0.08c1.21,0.51 2.48,0.93 3.82,1.22 2.11,0.45 3.44,2.53 2.99,4.64 -0.45,2.11 -2.53,3.45 -4.64,2.99 -1.81,-0.39 -3.58,-0.97 -5.27,-1.7l-0.22 -0.09c-7.35,-3.23 -13.15,-9.37 -16.76,-16.22 -1.69,-3.19 -2.9,-6.57 -3.59,-9.9 -1.64,4.03 -2.48,8.56 -2.22,13.15 0.78,13.44 -5.75,22.9 -14.73,27.83 -3.73,2.05 -7.91,3.3 -12.15,3.7 -4.25,0.4 -8.57,-0.03 -12.59,-1.35 -9.54,-3.12 -17.48,-11.06 -19.15,-24.27 -0.87,-6.88 3.41,-13.13 9.04,-16.44 2.08,-1.22 4.36,-2.06 6.64,-2.39 2.42,-0.35 4.87,-0.15 7.15,0.73 2.89,1.12 5.41,3.28 7.07,6.69 0.86,-1.76 1.34,-3.55 1.46,-5.34 0.22,-3.26 -0.71,-6.56 -2.57,-9.58l-0.17 -0.25c-2.07,-3.26 -5.22,-6.21 -9.17,-8.44 -6.48,-3.67 -15.08,-5.45 -24.78,-3.87 1.17,15.98 -2.47,28.52 -8.78,37.81 0.34,0.79 0.71,1.59 1.09,2.39 10.76,22.14 43.45,56.12 97.66,74.67 54.59,18.68 130.84,21.55 228.31,-19.15 9.38,-3.92 18.95,-8.23 28.69,-12.96 1.94,-0.93 4.27,-0.12 5.2,1.82 0.93,1.94 0.12,4.27 -1.82,5.2 -9.9,4.81 -19.6,9.19 -29.08,13.14 -99.53,41.56 -177.7,38.53 -233.8,19.33 -55.78,-19.09 -89.92,-54.32 -101.74,-77.79 -2.8,2.81 -5.89,5.18 -9.16,7.12 -6.25,3.72 -13.17,5.84 -19.97,6.44 -6.83,0.6 -13.62,-0.33 -19.56,-2.73 -11.72,-4.72 -20.17,-14.97 -19.78,-30.18 0.26,-10.16 4.46,-16.2 9.49,-18.81 2.78,-1.45 5.82,-1.84 8.65,-1.33 2.86,0.52 5.5,1.99 7.47,4.26 2.75,3.18 4.16,7.88 2.87,13.63 1.74,0 3.74,-0.84 5.66,-2.27 1.66,-1.23 3.23,-2.88 4.56,-4.83 1.35,-1.97 2.43,-4.21 3.08,-6.57 1.8,-6.5 0.36,-14.2 -7.66,-20.35 -8.23,-6.32 -16.26,-7.78 -24.95,-5.65 -8.49,2.07 -17.82,7.49 -28.63,15.15 5.23,8.55 8.12,18.36 8.33,27.94 0.16,7.04 -1.12,13.99 -3.96,20.25 -2.87,6.34 -7.33,11.98 -13.48,16.36 -7.64,5.42 -17.86,8.85 -30.88,9.14 -14.07,0.31 -23.98,-6.48 -29.36,-15.07l-0.16 -0.23c-2.17,-3.53 -3.58,-7.4 -4.19,-11.21 -0.63,-3.88 -0.42,-7.74 0.63,-11.17 1.9,-6.2 6.46,-11.02 13.78,-12.43l0.53 -0.1c2.14,-0.24 4.07,1.29 4.32,3.43 0.95,8.24 3.39,12.33 6.27,13.68 1.12,0.52 2.41,0.63 3.72,0.41 1.45,-0.24 2.94,-0.88 4.36,-1.77l0.18 -0.13c4.36,-2.84 7.77,-7.89 7.44,-12.19 -0.39,-5.08 -1.8,-8.74 -3.85,-11.28l-0.17 -0.19c-1.92,-2.29 -4.45,-3.73 -7.27,-4.54 -3.02,-0.87 -6.43,-1.05 -9.82,-0.79 -8.5,0.65 -16.49,3.9 -18.94,5.96 -8.97,7.54 -17.49,12.73 -25.45,16 -12.34,5.07 -23.36,5.55 -32.74,3.07 -9.46,-2.51 -17.2,-8.02 -22.96,-14.87 -3.51,-4.19 -6.29,-8.88 -8.26,-13.69 -0.82,-1.99 0.14,-4.26 2.12,-5.08 1.99,-0.82 4.26,0.13 5.08,2.12 1.69,4.11 4.05,8.1 7.03,11.64 4.8,5.7 11.2,10.28 18.97,12.34 7.85,2.08 17.18,1.63 27.79,-2.73 7.22,-2.97 15.04,-7.76 23.4,-14.78 3.24,-2.72 13.22,-6.98 23.36,-7.76 4.21,-0.32 8.54,-0.07 12.57,1.09 4.23,1.22 8.09,3.44 11.08,7.01l0.19 0.24c3.05,3.73 5.12,8.83 5.64,15.65 0.55,7.12 -4.48,15.07 -10.95,19.3l-0.24 0.14c-2.28,1.46 -4.78,2.5 -7.29,2.92 -2.8,0.47 -5.64,0.2 -8.3,-1.05 -4.4,-2.06 -8.11,-6.72 -9.93,-15.04 -2.1,1.31 -3.5,3.32 -4.23,5.69 -0.7,2.29 -0.83,4.94 -0.38,7.67 0.45,2.8 1.51,5.67 3.15,8.35l0.11 0.19c4.07,6.52 11.69,11.66 22.6,11.42 11.33,-0.25 20.09,-3.14 26.52,-7.71 4.97,-3.53 8.57,-8.09 10.89,-13.21 2.35,-5.2 3.41,-10.99 3.28,-16.89 -0.21,-9.28 -3.35,-18.83 -9.03,-26.82 -1.24,-1.74 -0.84,-4.16 0.89,-5.41 12.83,-9.35 23.91,-16.02 34.39,-18.58 11.05,-2.7 21.19,-0.89 31.51,7.02 11.08,8.5 13,19.36 10.44,28.61 -0.89,3.24 -2.35,6.26 -4.15,8.89 -1.81,2.65 -4,4.94 -6.36,6.69 -5.61,4.17 -12.19,5.31 -17.4,1.51 -1.47,-1.07 -1.97,-2.98 -1.32,-4.59 1.76,-4.38 1.24,-7.62 -0.34,-9.44 -0.78,-0.9 -1.84,-1.49 -2.98,-1.7 -1.17,-0.21 -2.45,-0.03 -3.65,0.59 -2.79,1.45 -5.14,5.26 -5.31,12.07 -0.29,11.48 6.07,19.21 14.9,22.76 4.79,1.93 10.34,2.68 15.99,2.18 5.69,-0.5 11.46,-2.27 16.68,-5.37 12.69,-7.54 22.12,-23.06 19.31,-47.57 -0.22,-1.98 1.08,-3.79 2.98,-4.23 13.11,-3.12 24.95,-0.95 33.73,4.02 5.1,2.88 9.18,6.72 11.93,11.03l0.17 0.3c2.73,4.41 4.09,9.31 3.76,14.23 -0.39,5.74 -3.06,11.43 -8.5,16.31 -1.6,1.43 -4.06,1.3 -5.49,-0.31 -0.6,-0.67 -0.93,-1.5 -0.98,-2.33 -0.36,-4.94 -2.04,-7.46 -4.15,-8.28 -0.96,-0.37 -2.07,-0.44 -3.21,-0.27 -1.3,0.19 -2.62,0.68 -3.83,1.39 -3.22,1.89 -5.71,5.25 -5.26,8.75 1.24,9.76 6.97,15.59 13.85,17.83 3.02,0.99 6.26,1.32 9.44,1.02 3.18,-0.3 6.31,-1.24 9.13,-2.79 6.54,-3.59 11.28,-10.56 10.71,-20.56 -0.47,-8.11 1.83,-16.08 5.79,-22.38 1.73,-2.75 3.79,-5.2 6.08,-7.23l0.02 -0.02 0 -0c0.11,-0.11 0.23,-0.21 0.36,-0.31l0 -0 0.03 -0.02c1.36,-1.16 2.81,-2.17 4.31,-3.01 4.44,-2.47 9.41,-3.47 14.49,-2.4 4.37,0.92 8.73,3.35 12.77,7.66 1.47,1.56 1.4,4.03 -0.17,5.5l-0.43 0.35c-3.97,2.81 -5.26,6.22 -4.75,9.1 0.22,1.23 0.75,2.38 1.5,3.34 0.78,0.99 1.82,1.81 3.02,2.35 3.13,1.41 7.52,0.97 12.1,-2.85 2.02,-1.68 3.38,-4.88 4.16,-8.33 1.03,-4.56 1,-9.29 0.15,-11.77 -8.05,-23.44 -35.51,-20.87 -56.99,-18.87l-2.63 0.25c-2.14,0.19 -4.03,-1.39 -4.22,-3.52 -0.19,-2.14 1.39,-4.03 3.52,-4.22l2.63 -0.25c3.99,-0.37 8.16,-0.76 12.4,-1.02 -1.68,-9.94 -4.65,-17.67 -10.42,-22.57 -6.45,-5.47 -16.74,-7.79 -33.13,-6.22 -1.69,0.26 -3.41,-0.62 -4.14,-2.25 -4.74,-10.53 -10.84,-18.93 -17.88,-25.4 -11.83,-10.87 -26.46,-16.34 -41.99,-17.35 -15.76,-1.02 -32.48,2.5 -48.25,9.62 -15.41,6.94 -29.9,17.31 -41.72,30.17 -6.23,6.79 -13.27,12.45 -20.88,16.87 -16.09,9.32 -34.75,13.04 -54.09,10.1 -19.18,-2.92 -39.02,-12.4 -57.61,-29.48 -12.5,-11.48 -24.46,-26.41 -35.3,-45.12 -1.08,-1.86 -0.44,-4.25 1.42,-5.32 1.86,-1.08 4.25,-0.44 5.32,1.42 10.42,17.99 21.88,32.32 33.83,43.29 17.38,15.96 35.79,24.8 53.5,27.5 8.81,1.34 17.45,1.16 25.73,-0.42 -9.21,-47.55 -6.84,-97.96 4.03,-147.05 11.89,-53.67 33.95,-105.78 62.11,-150.89 3.06,-4.89 6.26,-9.79 9.61,-14.67 31.62,-46.1 75.21,-89.49 124.45,-112.94 49.72,-23.68 105.13,-27.15 159.85,7.04 2.36,1.47 4.73,3.02 7.1,4.65 17.22,11.81 30.23,26.61 39.51,43.28 9.98,17.93 15.62,38.04 17.53,58.93l0.02 0.28c2.42,27.09 -5.89,52.74 -17.97,71.88 -12.2,19.35 -28.51,32.25 -41.82,33.64l-0.04 0.01c-0.37,0.06 -0.74,0.07 -1.1,0.02 -1.08,1.03 -2.25,2.18 -3.5,3.47 -3.98,4.09 -7.07,8.71 -9.65,15.96 -1.72,4.83 -3.23,10.81 -4.61,18.49zm47.88 83.39c-1.86,1.08 -4.25,0.44 -5.32,-1.42 -1.08,-1.86 -0.44,-4.25 1.42,-5.32 7.42,-4.31 13.48,-4.24 17.75,-1.63 2.6,1.6 4.45,4.08 5.47,7.08 0.93,2.72 1.18,5.89 0.71,9.17 -1.23,8.45 -7.36,17.98 -19.18,22.43 -2.01,0.76 -4.26,-0.26 -5.02,-2.27 -0.76,-2.01 0.26,-4.26 2.27,-5.02 8.79,-3.31 13.32,-10.19 14.21,-16.24 0.3,-2.06 0.17,-3.99 -0.37,-5.57 -0.44,-1.3 -1.17,-2.33 -2.14,-2.93 -1.95,-1.19 -5.21,-0.94 -9.79,1.72zm-31.42 184.29c0.15,-0.08 0.3,-0.15 0.45,-0.21 17.16,-6.71 32.92,-14.28 47.92,-25.87 15.02,-11.61 29.4,-27.34 43.87,-50.4 8.41,-13.4 12.54,-28.19 12.91,-43.03 0.4,-15.69 -3.39,-31.47 -10.74,-45.79 -4.15,-8.09 -5.79,-11.01 -5.9,-10.84 -1.84,2.81 -2.39,11.45 -2.31,21.75 0.07,8.89 -2.05,15.33 -4.87,20.15 -2.81,4.82 -6.21,7.9 -8.81,10.21l-0.31 0.25c-2.23,1.82 -4.21,1.58 -5.99,-0.41l-0.32 -0.41c-0.36,-0.54 -0.58,-1.14 -0.64,-1.76 -0.6,-3 0.12,-7.94 0.93,-13.48 0.88,-6.02 1.88,-12.96 1.93,-16.56 -1.03,1.19 -2.14,2.77 -3.26,4.55 -4.37,6.93 -8.63,16.5 -9.25,20.32 -1.38,8.47 -1.88,16.92 -2.36,25.11 -1.16,19.7 -2.25,38.02 -14.9,53.94 -9.47,11.91 -21.61,20.74 -35.06,27.71 -10.36,5.37 -21.5,9.63 -32.78,13.36 9.06,4.09 18.96,7.95 29.51,11.4zm-341.91 30.88c-1.44,-1.59 -1.32,-4.05 0.27,-5.49 1.59,-1.44 4.05,-1.32 5.49,0.27 15.13,16.73 39.32,42.57 74.99,65.08 35.61,22.47 82.74,41.66 143.86,45.19 2.15,0.12 3.79,1.96 3.68,4.1 -0.12,2.15 -1.96,3.79 -4.1,3.68 -62.67,-3.62 -111.03,-23.31 -147.58,-46.37 -36.49,-23.03 -61.18,-49.39 -76.61,-66.46zm44.04 -3.39c-1.44,-1.6 -1.31,-4.07 0.29,-5.5 1.6,-1.44 4.07,-1.31 5.5,0.29 12.3,13.66 25.5,25.72 39.37,36.31 74.19,56.62 168.19,71.82 249.15,67.92 80.82,-3.9 148.32,-26.68 170.06,-46.24 1.57,-1.41 2.87,-2.79 3.87,-4.1 1.3,-1.71 3.75,-2.03 5.46,-0.73 1.71,1.31 2.04,3.75 0.73,5.46 -1.31,1.72 -2.93,3.45 -4.84,5.17 -22.73,20.46 -92.28,44.24 -174.91,48.22 -82.49,3.98 -178.35,-11.58 -254.24,-69.5 -14.27,-10.89 -27.83,-23.27 -40.44,-37.28zm55.4 -22.51c-0.85,-1.98 0.07,-4.28 2.04,-5.12 1.98,-0.85 4.28,0.07 5.13,2.04 8.22,19.06 32.93,47.59 76.16,69.62 31.22,15.91 71.99,28.35 123.05,31.3 2.15,0.12 3.79,1.95 3.68,4.1 -0.12,2.15 -1.96,3.79 -4.11,3.68 -52.3,-3.02 -94.12,-15.79 -126.16,-32.12 -45.06,-22.97 -71.02,-53.18 -79.79,-73.49zm294.02 102.39c-2.12,0.33 -4.12,-1.12 -4.45,-3.24 -0.34,-2.12 1.12,-4.12 3.24,-4.45 26.11,-4.21 58.67,-11.5 93.73,-30.04 35.08,-18.55 72.75,-48.41 109.12,-97.77 1.27,-1.74 3.71,-2.11 5.45,-0.84 1.73,1.27 2.11,3.71 0.84,5.45 -37.18,50.45 -75.78,81.02 -111.78,100.06 -36.02,19.05 -69.39,26.53 -96.14,30.84zm-160.44 -101.49c-1.69,-1.34 -1.96,-3.79 -0.63,-5.48 1.34,-1.69 3.79,-1.96 5.48,-0.63 12.48,9.93 34.8,17.08 59.11,21.85 33.12,6.5 69.66,8.51 90.5,7.2 2.15,-0.13 4,1.5 4.14,3.64 0.13,2.15 -1.5,4 -3.64,4.13 -21.38,1.35 -58.74,-0.69 -92.49,-7.32 -25.38,-4.98 -48.89,-12.61 -62.46,-23.41zm-173.62 -158.28c2.36,-1.24 4.73,-2.4 7.13,-3.48 16.9,-7.62 34.9,-11.4 51.94,-10.29 17.26,1.12 33.55,7.24 46.78,19.39 7.22,6.63 13.52,15.05 18.54,25.42 3.81,-0.29 7.33,-0.36 10.59,-0.24 -12.55,-39.44 -42.22,-69.19 -70.92,-81.75 -10.2,-4.46 -20.22,-6.72 -29.21,-6.44 -8.65,0.28 -16.35,2.96 -22.28,8.35 -9.55,8.68 -14.79,24.56 -12.58,49.03zm115.73 -198.53c6.05,0.71 13.07,1.87 20.81,3.15 51.76,8.55 137.82,22.77 168.54,-58.8 -19.19,17.88 -36.97,28.98 -61.3,36.6 -27.78,8.69 -63.94,12.72 -120.64,17.1 -2.03,0.16 -4.52,0.82 -7.4,1.95zm103.65 113.7c-0.23,-0.18 -0.44,-0.3 -0.57,-0.3 -0.89,0.05 -0.22,0.14 0.57,0.3z"/>
    </g>
    <path class="fil5" d="M275.45 1324.06l-0.09 -44.31 -21.98 36.92 -4 0 -21.98 -36.66 0 44.04 -8.34 0 0 -60.81 7.12 0 25.36 42.74 25.02 -42.74 7.12 0 0.09 60.81 -8.34 0zm54.03 0.69c-6.14,0 -11.67,-1.35 -16.59,-4.04 -4.92,-2.69 -8.79,-6.41 -11.6,-11.16 -2.81,-4.75 -4.21,-10.05 -4.21,-15.9 0,-5.85 1.4,-11.15 4.21,-15.9 2.81,-4.75 6.68,-8.47 11.6,-11.17 4.92,-2.69 10.45,-4.04 16.59,-4.04 6.08,0 11.58,1.35 16.5,4.04 4.93,2.69 8.78,6.4 11.55,11.12 2.78,4.72 4.17,10.03 4.17,15.94 0,5.91 -1.39,11.22 -4.17,15.94 -2.78,4.72 -6.63,8.43 -11.55,11.12 -4.92,2.69 -10.42,4.04 -16.5,4.04zm0 -7.73c4.46,0 8.47,-1.01 12.03,-3.04 3.56,-2.02 6.37,-4.82 8.43,-8.38 2.06,-3.56 3.08,-7.54 3.08,-11.94 0,-4.4 -1.03,-8.38 -3.08,-11.94 -2.06,-3.56 -4.86,-6.36 -8.43,-8.38 -3.56,-2.03 -7.57,-3.04 -12.03,-3.04 -4.46,0 -8.5,1.01 -12.12,3.04 -3.62,2.02 -6.46,4.82 -8.51,8.38 -2.06,3.56 -3.08,7.54 -3.08,11.94 0,4.4 1.03,8.38 3.08,11.94 2.06,3.56 4.89,6.36 8.51,8.38 3.62,2.03 7.66,3.04 12.12,3.04zm101.9 7.04l-0.09 -44.31 -21.98 36.92 -4 0 -21.98 -36.66 0 44.04 -8.34 0 0 -60.81 7.12 0 25.36 42.74 25.02 -42.74 7.12 0 0.09 60.81 -8.34 0zm127.09 -31.54c3.53,0.98 6.31,2.77 8.34,5.34 2.03,2.58 3.04,5.83 3.04,9.78 0,5.27 -1.98,9.32 -5.95,12.16 -3.97,2.84 -9.74,4.26 -17.33,4.26l-29.02 0 0 -60.81 27.28 0c6.95,0 12.32,1.39 16.12,4.17 3.79,2.78 5.69,6.63 5.69,11.55 0,3.19 -0.74,5.94 -2.21,8.25 -1.48,2.32 -3.46,4.08 -5.95,5.3zm-32.23 -22.24l0 19.46 17.81 0c4.46,0 7.89,-0.83 10.3,-2.48 2.4,-1.65 3.6,-4.07 3.6,-7.25 0,-3.19 -1.2,-5.6 -3.6,-7.26 -2.4,-1.65 -5.83,-2.47 -10.3,-2.47l-17.81 0zm19.98 46.73c4.93,0 8.63,-0.81 11.12,-2.43 2.49,-1.62 3.74,-4.17 3.74,-7.64 0,-6.78 -4.95,-10.16 -14.86,-10.16l-19.98 0 0 20.24 19.98 0zm75.84 -8.17l-32.31 0 -6.69 15.2 -8.95 0 27.54 -60.81 8.6 0 27.62 60.81 -9.12 0 -6.69 -15.2zm-3.04 -6.95l-13.12 -29.8 -13.12 29.8 26.23 0zm68.8 -9.38c3.53,0.98 6.31,2.77 8.34,5.34 2.03,2.58 3.04,5.83 3.04,9.78 0,5.27 -1.98,9.32 -5.95,12.16 -3.97,2.84 -9.74,4.26 -17.33,4.26l-29.02 0 0 -60.81 27.28 0c6.95,0 12.32,1.39 16.12,4.17 3.79,2.78 5.69,6.63 5.69,11.55 0,3.19 -0.74,5.94 -2.21,8.25 -1.48,2.32 -3.46,4.08 -5.95,5.3zm-32.23 -22.24l0 19.46 17.81 0c4.46,0 7.89,-0.83 10.3,-2.48 2.4,-1.65 3.6,-4.07 3.6,-7.25 0,-3.19 -1.2,-5.6 -3.6,-7.26 -2.4,-1.65 -5.83,-2.47 -10.3,-2.47l-17.81 0zm19.98 46.73c4.93,0 8.63,-0.81 11.12,-2.43 2.49,-1.62 3.74,-4.17 3.74,-7.64 0,-6.78 -4.95,-10.16 -14.86,-10.16l-19.98 0 0 20.24 19.98 0zm59.07 -13.98l0 21.02 -8.6 0 0 -21.2 -24.15 -39.61 9.3 0 19.46 32.06 19.55 -32.06 8.6 0 -24.15 39.79zm83.48 21.72c-6.08,0 -11.57,-1.35 -16.46,-4.04 -4.89,-2.69 -8.73,-6.4 -11.51,-11.12 -2.78,-4.72 -4.17,-10.03 -4.17,-15.94 0,-5.91 1.39,-11.22 4.17,-15.94 2.78,-4.72 6.63,-8.43 11.55,-11.12 4.92,-2.69 10.42,-4.04 16.5,-4.04 4.75,0 9.09,0.79 13.03,2.39 3.94,1.59 7.3,3.95 10.08,7.08l-5.65 5.47c-4.57,-4.81 -10.28,-7.21 -17.11,-7.21 -4.52,0 -8.6,1.01 -12.25,3.04 -3.65,2.02 -6.5,4.82 -8.56,8.38 -2.06,3.56 -3.08,7.54 -3.08,11.94 0,4.4 1.03,8.38 3.08,11.94 2.06,3.56 4.91,6.36 8.56,8.38 3.65,2.03 7.73,3.04 12.25,3.04 6.78,0 12.48,-2.43 17.11,-7.3l5.65 5.47c-2.78,3.13 -6.15,5.5 -10.12,7.12 -3.97,1.62 -8.32,2.43 -13.07,2.43zm72.89 -15.9l-32.31 0 -6.69 15.2 -8.95 0 27.54 -60.81 8.6 0 27.62 60.81 -9.12 0 -6.69 -15.2zm-3.04 -6.95l-13.12 -29.8 -13.12 29.8 26.23 0zm68.54 22.15l-13.12 -18.68c-1.62,0.12 -2.9,0.17 -3.82,0.17l-15.03 0 0 18.5 -8.69 0 0 -60.81 23.72 0c7.88,0 14.07,1.88 18.59,5.64 4.52,3.77 6.78,8.95 6.78,15.55 0,4.69 -1.16,8.69 -3.48,11.99 -2.31,3.3 -5.62,5.7 -9.9,7.21l14.42 20.41 -9.47 0zm-17.2 -25.89c5.5,0 9.7,-1.19 12.6,-3.56 2.89,-2.38 4.34,-5.76 4.34,-10.17 0,-4.4 -1.45,-7.78 -4.34,-10.12 -2.9,-2.35 -7.1,-3.52 -12.6,-3.52l-14.77 0 0 27.36 14.77 0zm83.83 18.33l0 7.56 -44.13 0 0 -60.81 42.92 0 0 7.56 -34.23 0 0 18.68 30.49 0 0 7.39 -30.49 0 0 19.63 35.44 0zm76.19 -7.64l-32.31 0 -6.69 15.2 -8.95 0 27.54 -60.81 8.6 0 27.62 60.81 -9.12 0 -6.69 -15.2zm-3.04 -6.95l-13.12 -29.8 -13.12 29.8 26.23 0zm69.15 -8.6l8.34 0 0 23.72c-3.01,2.49 -6.52,4.4 -10.51,5.74 -4,1.33 -8.17,2 -12.51,2 -6.14,0 -11.67,-1.35 -16.59,-4.04 -4.92,-2.69 -8.79,-6.4 -11.6,-11.12 -2.81,-4.72 -4.21,-10.03 -4.21,-15.94 0,-5.91 1.4,-11.24 4.21,-15.98 2.81,-4.75 6.69,-8.45 11.64,-11.12 4.95,-2.66 10.53,-3.99 16.72,-3.99 4.86,0 9.28,0.79 13.25,2.39 3.97,1.59 7.34,3.92 10.12,6.99l-5.39 5.39c-4.86,-4.69 -10.74,-7.03 -17.64,-7.03 -4.63,0 -8.79,1 -12.46,3 -3.68,2 -6.56,4.78 -8.64,8.34 -2.08,3.56 -3.13,7.57 -3.13,12.03 0,4.4 1.04,8.38 3.13,11.94 2.08,3.56 4.97,6.36 8.64,8.38 3.68,2.03 7.8,3.04 12.38,3.04 5.45,0 10.19,-1.3 14.25,-3.91l0 -19.81zm69.06 23.2l0 7.56 -44.13 0 0 -60.81 42.92 0 0 7.56 -34.23 0 0 18.68 30.49 0 0 7.39 -30.49 0 0 19.63 35.44 0zm66.37 -53.25l0 60.81 -7.12 0 -36.49 -45.35 0 45.35 -8.69 0 0 -60.81 7.12 0 36.49 45.35 0 -45.35 8.69 0zm45.43 61.5c-6.08,0 -11.57,-1.35 -16.46,-4.04 -4.89,-2.69 -8.73,-6.4 -11.51,-11.12 -2.78,-4.72 -4.17,-10.03 -4.17,-15.94 0,-5.91 1.39,-11.22 4.17,-15.94 2.78,-4.72 6.63,-8.43 11.55,-11.12 4.92,-2.69 10.42,-4.04 16.5,-4.04 4.75,0 9.09,0.79 13.03,2.39 3.94,1.59 7.3,3.95 10.08,7.08l-5.65 5.47c-4.57,-4.81 -10.28,-7.21 -17.11,-7.21 -4.52,0 -8.6,1.01 -12.25,3.04 -3.65,2.02 -6.5,4.82 -8.56,8.38 -2.06,3.56 -3.08,7.54 -3.08,11.94 0,4.4 1.03,8.38 3.08,11.94 2.06,3.56 4.91,6.36 8.56,8.38 3.65,2.03 7.73,3.04 12.25,3.04 6.78,0 12.48,-2.43 17.11,-7.3l5.65 5.47c-2.78,3.13 -6.15,5.5 -10.12,7.12 -3.97,1.62 -8.32,2.43 -13.07,2.43zm57.86 -21.72l0 21.02 -8.6 0 0 -21.2 -24.15 -39.61 9.3 0 19.46 32.06 19.55 -32.06 8.6 0 -24.15 39.79zm-901.73 21.98l-8.08 -8.08c-5.39,5.21 -12.16,7.82 -20.33,7.82 -4.05,0 -7.7,-0.67 -10.95,-2 -3.24,-1.33 -5.78,-3.2 -7.6,-5.6 -1.82,-2.4 -2.74,-5.14 -2.74,-8.21 0,-3.71 1.14,-6.99 3.43,-9.86 2.29,-2.87 6.07,-5.81 11.34,-8.82 -2.66,-2.66 -4.55,-5.07 -5.64,-7.21 -1.1,-2.14 -1.65,-4.37 -1.65,-6.69 0,-4.11 1.49,-7.41 4.47,-9.9 2.98,-2.49 6.97,-3.74 11.95,-3.74 4.63,0 8.31,1.13 11.03,3.39 2.72,2.26 4.08,5.36 4.08,9.3 0,3.07 -1,5.82 -3,8.25 -2,2.43 -5.31,4.98 -9.95,7.64l15.03 14.94c1.74,-3.3 2.98,-6.98 3.74,-11.03l6.69 2.17c-1.04,5.33 -2.81,9.96 -5.3,13.9l8.17 8.17 -4.69 5.56zm-25.8 -56.21c-2.72,0 -4.85,0.68 -6.39,2.04 -1.54,1.36 -2.3,3.14 -2.3,5.34 0,1.56 0.42,3.07 1.26,4.52 0.84,1.45 2.48,3.42 4.91,5.91 4,-2.26 6.76,-4.2 8.3,-5.82 1.54,-1.62 2.3,-3.39 2.3,-5.3 0,-2.03 -0.71,-3.65 -2.13,-4.87 -1.42,-1.21 -3.4,-1.82 -5.95,-1.82zm-2.09 48.99c6.02,0 10.98,-1.91 14.86,-5.73l-17.29 -17.2c-4.17,2.32 -7.08,4.47 -8.73,6.47 -1.65,2 -2.48,4.24 -2.48,6.73 0,2.9 1.26,5.24 3.78,7.04 2.52,1.79 5.81,2.69 9.86,2.69z"/>
   </g>
   <g>
    <path class="fil0" d="M920.51 1053.25l0 91.48c0,2.24 0,4.28 0,6.31 0,1.98 0.13,3.88 0.46,5.72 0.33,1.91 1.25,3.69 2.83,5.33 1.52,1.64 4.01,2.5 7.37,2.5 2.7,0 6.58,-0.53 11.58,-1.58l0 8.62c-4.47,1.91 -8.62,3.29 -12.43,4.08 -3.82,0.73 -7.76,1.12 -11.84,1.12 -3.75,0 -7.17,-0.53 -10.45,-1.51 -3.22,-1.05 -6.12,-2.5 -8.68,-4.28 -4.74,-3.55 -7.69,-9.67 -8.81,-18.28l-3.48 3.62c-16.27,16.87 -39.78,24.79 -62.14,24.79 -14.34,0 -26.69,-4.49 -37.16,-13.41 -10.44,-8.9 -15.65,-20.45 -15.65,-34.73 0,-13.88 3.21,-24.61 9.73,-32.29 6.5,-7.64 14.4,-12.9 23.68,-15.85 23.16,-7.36 48.87,-7.49 69.7,-13.94 5.2,-1.61 9.07,-4.01 11.58,-7.17 2.5,-3.16 3.75,-7.76 3.75,-13.94 0,-14.67 -4.01,-26.04 -12.04,-34.13 -8.02,-8.09 -19.41,-11.67 -34,-12.1 -21.22,-0.63 -41.35,5.59 -44.62,21.86 -4.11,20.42 -23.93,11.25 -15.27,-5.31 7.77,-14.84 31.86,-33.13 71.99,-33.13 20.78,0 36.63,5.52 47.55,16.64 10.91,11.11 16.37,27.69 16.37,49.59zm-31.57 83.98l0 -57.54 -13.88 2.89c-16.46,2.89 -32.76,4.61 -48.2,11.25 -6.33,2.72 -11.67,6.89 -15.98,12.43 -4.29,5.5 -6.45,12.56 -6.45,21.18 0,12.3 3.37,21.55 10.13,27.82 17.36,16.09 47.9,9.95 63.79,-5.66l4.21 -4.08 4.28 -4.6c1.12,-1.51 1.84,-2.76 2.1,-3.69z"/>
    <path class="fil1" d="M1239.14 1084.78c0,-14.14 2.5,-26.9 7.43,-38.34 4.93,-11.45 12.04,-21.44 21.31,-30.06 9.21,-8.62 19.86,-15.19 31.9,-19.73 11.97,-4.54 25.19,-6.84 39.59,-6.84 17.95,0 33.87,3.88 47.68,11.64 13.81,7.76 24.6,19.01 32.29,33.6 7.69,14.67 11.58,31.64 11.58,51.04 0,12.5 -2.11,24.6 -6.38,36.44 -4.21,11.78 -10.52,22.36 -18.94,31.7 -8.42,9.27 -18.94,16.58 -31.57,21.84 -12.56,5.26 -26.51,7.89 -41.76,7.89 -16.97,0 -32.62,-3.95 -46.96,-11.84 -14.34,-7.89 -25.58,-19.4 -33.81,-34.59 -8.22,-15.12 -12.36,-32.75 -12.36,-52.75zm72.78 -79.62c-14.85,4.95 -25.54,13.02 -32,24.2 -6.53,11.19 -9.59,23.86 -9.27,38.1 0.38,14.23 2.9,28.44 7.6,42.54 4.6,13.79 10.76,25.59 18.46,35.58 7.74,9.9 17.22,17.13 28.43,21.64 11.27,4.49 23.63,4.53 36.98,0.07 13.17,-4.39 22.64,-12.55 28.31,-24.49 5.73,-11.9 8.35,-25.04 7.99,-39.42 -0.42,-14.35 -2.49,-27.18 -6.25,-38.47 -3.1,-9.3 -7.09,-18.16 -11.92,-26.6 -4.85,-8.51 -10.65,-15.72 -17.31,-21.75 -6.65,-6.03 -14.37,-10.25 -23.02,-12.7 -8.65,-2.45 -18.02,-2.03 -27.99,1.3z"/>
    <path class="fil1" d="M1455.64 1084.78c0,-14.14 2.5,-26.9 7.43,-38.34 4.93,-11.45 12.04,-21.44 21.31,-30.06 9.21,-8.62 19.86,-15.19 31.9,-19.73 11.97,-4.54 25.19,-6.84 39.59,-6.84 17.95,0 33.87,3.88 47.68,11.64 13.81,7.76 24.6,19.01 32.29,33.6 7.69,14.67 11.57,31.64 11.57,51.04 0,12.5 -2.1,24.6 -6.38,36.44 -4.21,11.78 -10.52,22.36 -18.94,31.7 -8.42,9.27 -18.94,16.58 -31.57,21.84 -12.56,5.26 -26.51,7.89 -41.76,7.89 -16.97,0 -32.62,-3.95 -46.96,-11.84 -14.34,-7.89 -25.58,-19.4 -33.81,-34.59 -8.22,-15.12 -12.36,-32.75 -12.36,-52.75zm72.78 -79.62c-14.85,4.95 -25.54,13.02 -32,24.2 -6.53,11.19 -9.59,23.86 -9.27,38.1 0.38,14.23 2.9,28.44 7.6,42.54 4.6,13.79 10.76,25.59 18.46,35.58 7.74,9.9 17.22,17.13 28.43,21.64 11.27,4.49 23.63,4.53 36.98,0.07 13.17,-4.39 22.64,-12.55 28.3,-24.49 5.74,-11.9 8.35,-25.04 8,-39.42 -0.42,-14.35 -2.49,-27.18 -6.25,-38.47 -3.1,-9.3 -7.09,-18.16 -11.92,-26.6 -4.85,-8.51 -10.65,-15.72 -17.31,-21.75 -6.65,-6.03 -14.37,-10.25 -23.02,-12.7 -8.65,-2.45 -18.01,-2.03 -27.99,1.3z"/>
    <path class="fil0" d="M243.98 1084.78c0,-14.14 2.5,-26.9 7.43,-38.34 4.93,-11.45 12.04,-21.44 21.31,-30.06 9.21,-8.62 19.86,-15.19 31.9,-19.73 11.97,-4.54 25.19,-6.84 39.59,-6.84 17.96,0 33.87,3.88 47.69,11.64 13.81,7.76 24.6,19.01 32.29,33.6 7.7,14.67 11.58,31.64 11.58,51.04 0,12.5 -2.1,24.6 -6.38,36.44 -4.21,11.78 -10.52,22.36 -18.94,31.7 -8.42,9.27 -18.94,16.58 -31.57,21.84 -12.56,5.26 -26.51,7.89 -41.76,7.89 -16.97,0 -32.62,-3.95 -46.96,-11.84 -14.34,-7.89 -25.58,-19.4 -33.81,-34.59 -8.22,-15.12 -12.36,-32.75 -12.36,-52.75zm72.78 -79.62c-14.85,4.95 -25.54,13.02 -32,24.2 -6.53,11.19 -9.59,23.86 -9.27,38.1 0.38,14.23 2.9,28.44 7.6,42.54 4.6,13.79 10.76,25.59 18.46,35.58 7.74,9.9 17.23,17.13 28.43,21.64 11.27,4.49 23.63,4.53 36.98,0.07 13.17,-4.39 22.65,-12.55 28.31,-24.49 5.73,-11.9 8.35,-25.04 8,-39.42 -0.42,-14.35 -2.49,-27.18 -6.26,-38.47 -3.1,-9.3 -7.09,-18.16 -11.92,-26.6 -4.85,-8.51 -10.65,-15.72 -17.31,-21.75 -6.65,-6.03 -14.37,-10.25 -23.02,-12.7 -8.65,-2.45 -18.01,-2.03 -27.99,1.3z"/>
    <path class="fil1" d="M1036.57 1064.66l0 104.04c31.96,0 59.2,8.32 92.14,-8.09 17.18,-8.59 29.67,-21.36 37.3,-38.32 7.21,-15.9 11.15,-36.91 11.64,-57.64l33.13 0c-0.33,11.88 -2.08,23.66 -5.16,34.69 -3.39,12.38 -8.36,23.29 -14.8,32.78 -6.45,9.5 -14.02,18.14 -22.78,26 -6.61,5.93 -14.13,10.74 -22.5,14.41 -3.68,1.53 -7.63,3 -11.93,4.36 -4.29,1.41 -8.64,2.49 -13,3.34 -4.35,0.79 -8.65,1.52 -12.94,2.15 -4.24,0.62 -8.14,0.9 -11.64,0.9l-30.46 0.68 -66.07 0 0 -119.3 37.06 0z"/>
    <path class="fil1" d="M1036.57 965.97c31.96,0 55.6,-8.33 88.54,8.09 17.19,8.57 29.64,21.38 37.3,38.31 14.89,32.93 14.89,77 0,109.92 -7.66,16.94 -20.11,29.75 -37.3,38.32 -32.93,16.42 -56.58,8.09 -88.54,8.09 0,-67.58 0,-135.16 0,-202.73zm154.26 36.57c-6.45,-9.5 -14.02,-18.14 -22.78,-26 -6.61,-5.94 -14.13,-10.74 -22.5,-14.41 -3.68,-1.52 -7.63,-2.99 -11.93,-4.36 -4.29,-1.41 -8.64,-2.49 -13,-3.33 -4.35,-0.79 -8.65,-1.52 -12.94,-2.15 -4.24,-0.62 -8.14,-0.9 -11.64,-0.9l-30.46 -0.68 -66.07 0c0,77.75 0,155.49 0,233.24l66.07 0 30.46 -0.68c3.5,0 7.4,-0.28 11.64,-0.9 4.29,-0.63 8.59,-1.36 12.94,-2.15 4.35,-0.85 8.7,-1.93 13,-3.34 4.3,-1.36 8.25,-2.83 11.93,-4.36 8.37,-3.67 15.88,-8.48 22.5,-14.41 8.76,-7.86 16.33,-16.5 22.78,-26 25.97,-38.29 25.97,-91.3 0,-129.59z"/>
    <path class="fil0" d="M722.05 930.57l0 217.77c0,2.22 0,4.28 0,6.31 0,1.98 0.13,3.88 0.46,5.72 0.33,1.91 1.25,3.69 2.83,5.33 1.51,1.64 4.01,2.5 7.37,2.5 2.69,0 6.58,-0.53 11.58,-1.58l0 8.62c-4.48,1.91 -8.62,3.29 -12.43,4.08 -3.81,0.73 -7.76,1.12 -11.84,1.12 -3.75,0 -7.17,-0.53 -10.46,-1.51 -3.22,-1.05 -6.12,-2.5 -8.68,-4.28 -4.73,-3.55 -7.69,-9.67 -8.81,-18.28l0 -214.78 29.99 -11.01z"/>
    <path class="fil0" d="M624.94 989.94l0 143.27 0 14.98c0,8.83 -2.5,21.31 10.34,21.31 2.69,0 6.58,-0.53 11.58,-1.58l0 8.62c-4.47,1.91 -8.62,3.29 -12.43,4.08 -10.85,2.06 -21.62,1.81 -30.98,-4.67 -9.26,-6.95 -10.07,-21.37 -10.07,-31.31 -4.21,8.09 -9.41,14.8 -15.52,20.19 -6.05,5.39 -13.15,9.54 -21.24,12.5 -8.09,2.96 -16.77,4.4 -25.98,4.4 -21.97,0 -38.36,-6.04 -49.07,-18.08 -10.73,-12.09 -16.04,-31.38 -16.04,-57.81l0 -115.95 31.57 0.07 0 106.54c0,14.14 1.52,26.11 4.6,35.84 3.09,9.73 8.16,17.23 15.26,22.36 7.04,5.13 16.38,7.69 27.88,7.69 12.5,0 22.23,-3.09 29.27,-9.27 7.1,-6.12 12.03,-14.14 14.93,-24 2.88,-9.8 4.34,-19.93 4.34,-30.32l0 -108.92 31.57 0.07z"/>
    <path class="fil2" d="M37.06 965.97c31.96,0 55.6,-8.33 88.54,8.09 17.19,8.57 29.64,21.38 37.3,38.31 14.89,32.93 14.89,77 0,109.92 -7.66,16.94 -20.11,29.75 -37.3,38.32 -32.93,16.42 -56.58,8.09 -88.54,8.09 0,-67.58 0,-135.16 0,-202.73zm154.26 36.57c-6.45,-9.5 -14.02,-18.14 -22.78,-26 -6.62,-5.94 -14.13,-10.74 -22.5,-14.41 -3.68,-1.52 -7.63,-2.99 -11.93,-4.36 -4.3,-1.41 -8.65,-2.49 -13,-3.33 -4.35,-0.79 -8.65,-1.52 -12.94,-2.15 -4.24,-0.62 -8.14,-0.9 -11.64,-0.9l-30.46 -0.68 -66.07 0c0,77.75 0,155.49 0,233.24l66.07 0 30.46 -0.68c3.5,0 7.4,-0.28 11.64,-0.9 4.29,-0.63 8.59,-1.36 12.94,-2.15 4.35,-0.85 8.7,-1.93 13,-3.34 4.3,-1.36 8.25,-2.83 11.93,-4.36 8.37,-3.67 15.88,-8.48 22.5,-14.41 8.76,-7.86 16.33,-16.5 22.78,-26 25.97,-38.29 25.97,-91.3 0,-129.59z"/>
   </g>
   <g>
    <circle class="fil3" cx="775.44" cy="403.69" r="393.93"/>
    <path class="fil4" d="M718.05 366.19c-5.95,-2.35 -31.39,29.45 -12.85,62.02 14.98,26.32 51.45,41.62 71.52,70.23 2.9,-7.31 -3.56,-33.67 27.01,-31.94 0.11,-0.07 6.42,-30.22 5.91,-32.45 -4.02,-17.37 -13.14,-19.93 0.08,-52.43 0.34,-0.84 -12.32,-13.58 -12.29,1 0.02,10.62 -6.33,-8.17 -14.88,8.5 -14.89,29.03 -49.63,0.76 -64.5,-24.93z"/>
    <path class="fil4" d="M775.44 9.76c217.56,0 393.93,176.37 393.93,393.93 0,53.71 1.92,77.78 -27.66,145.28 -20.62,24.55 -64.16,68.04 -116.04,79.82 -61.24,13.9 -118.59,8.46 -156.98,-11.05 42.95,-10.08 151.2,-99.4 81,-182.48 13.53,-45.77 -19.74,-109.76 -104.23,-80.86 -5.49,-15.73 10.93,-44.27 20.52,-46.94 63.74,-18.75 69.59,-113.67 33.41,-168.87 -28.5,-43.49 -84.46,-58.62 -117.04,-61.2 -53.69,-4.25 -115.71,24.52 -186.41,109.22 -51.5,61.71 -108.84,176.25 -89.76,330.39 -55.88,21.25 -125.51,-42.78 -124.66,-113.33 2.62,-217.55 176.37,-393.93 393.93,-393.93z"/>
    <path class="fil5" d="M775.44 0c111.47,0 212.4,45.19 285.45,118.24 73.05,73.05 118.24,173.98 118.24,285.45 0,111.47 -45.19,212.4 -118.24,285.45 -73.05,73.05 -173.98,118.24 -285.45,118.24 -111.47,0 -212.4,-45.19 -285.45,-118.24 -73.05,-73.05 -118.24,-173.98 -118.24,-285.45 0,-111.47 45.19,-212.4 118.24,-285.45 73.05,-73.05 173.98,-118.24 285.45,-118.24zm271.65 132.04c-69.52,-69.51 -165.56,-112.52 -271.65,-112.52 -106.09,0 -202.13,43 -271.65,112.52 -69.52,69.52 -112.52,165.56 -112.52,271.65 0,106.09 43,202.13 112.52,271.65 69.52,69.51 165.56,112.52 271.65,112.52 106.09,0 202.13,-43 271.65,-112.52 69.52,-69.52 112.52,-165.56 112.52,-271.65 0,-106.09 -43,-202.13 -112.52,-271.65z"/>
    <path class="fil6" d="M873.34 712.36c-2.15,0.12 -3.99,-1.51 -4.12,-3.66 -0.12,-2.15 1.51,-3.99 3.66,-4.12 24.05,-1.43 48.59,-5.07 72.49,-11.9 23.85,-6.81 47.06,-16.8 68.5,-30.93 1.79,-1.18 4.21,-0.68 5.38,1.12 1.18,1.79 0.68,4.21 -1.11,5.38 -22.19,14.62 -46.11,24.93 -70.63,31.93 -24.46,6.99 -49.57,10.71 -74.17,12.17zm-327.38 -10c-1.7,-1.31 -2.02,-3.76 -0.7,-5.46 1.31,-1.7 3.76,-2.02 5.46,-0.7l2.37 1.83c41.68,32.28 117.24,90.8 305.04,69.59 2.14,-0.23 4.07,1.31 4.3,3.45 0.23,2.14 -1.31,4.07 -3.45,4.3 -190.92,21.56 -268.09,-38.21 -310.66,-71.17l-2.37 -1.83zm40.35 -84.12c-1.1,-1.84 -0.5,-4.24 1.34,-5.34 1.84,-1.1 4.23,-0.5 5.34,1.34 12.31,20.5 25.33,35.8 40.85,49.06 15.61,13.34 33.84,24.69 56.47,37.26 1.88,1.04 2.55,3.42 1.51,5.29 -1.04,1.88 -3.42,2.55 -5.3,1.51 -23.06,-12.79 -41.68,-24.41 -57.75,-38.14 -16.15,-13.8 -29.69,-29.7 -42.47,-50.98zm66.88 15.49c-1.53,-1.51 -1.55,-3.98 -0.04,-5.51 1.5,-1.53 3.98,-1.55 5.5,-0.04 18.96,18.71 41.59,34.74 65.86,46.99 24.08,12.15 49.78,20.56 75.12,24.16 2.13,0.3 3.62,2.26 3.33,4.39 -0.3,2.13 -2.26,3.62 -4.39,3.32 -26.21,-3.71 -52.74,-12.39 -77.57,-24.92 -24.97,-12.6 -48.27,-29.11 -67.81,-48.39zm69.83 -1.09c-1.53,-1.51 -1.55,-3.98 -0.04,-5.51 1.51,-1.53 3.98,-1.55 5.5,-0.04 18.25,18.01 49.6,29.94 86.21,35.33 38.19,5.63 81.92,4.1 122.48,-5.07 2.1,-0.47 4.18,0.85 4.65,2.94 0.47,2.1 -0.85,4.18 -2.95,4.65 -41.5,9.38 -86.26,10.94 -125.32,5.19 -38.15,-5.62 -71.05,-18.27 -90.54,-37.5zm-303.46 -108.1c-1.63,-1.4 -1.82,-3.86 -0.43,-5.49 1.4,-1.63 3.86,-1.83 5.5,-0.43 4.83,4.12 12.18,9.51 21.57,13.76 6.74,3.05 14.53,5.53 23.2,6.55 2.14,0.25 3.67,2.2 3.41,4.33 -0.25,2.14 -2.2,3.67 -4.33,3.41 -9.53,-1.12 -18.09,-3.85 -25.48,-7.19 -10.21,-4.63 -18.2,-10.47 -23.44,-14.95zm37.66 79.29c-0.54,-2.08 0.71,-4.2 2.79,-4.74 2.08,-0.54 4.2,0.71 4.74,2.79 1.75,6.77 3.44,12.34 7.09,18.3 3.72,6.08 9.53,12.75 19.56,21.74 1.6,1.43 1.74,3.89 0.31,5.49 -1.43,1.6 -3.89,1.74 -5.49,0.3 -10.67,-9.56 -16.93,-16.77 -21.03,-23.48 -4.17,-6.82 -6.05,-12.97 -7.97,-20.4zm23.24 6.48c-0.87,-1.97 0.02,-4.27 2,-5.14 1.97,-0.87 4.27,0.02 5.14,2 3.05,6.9 6.01,13.05 9.78,18.47l0.13 0.2c3.65,5.22 8.15,9.87 14.35,14.03 1.79,1.2 2.26,3.62 1.07,5.4 -1.2,1.79 -3.62,2.26 -5.4,1.07 -7.09,-4.76 -12.22,-10.07 -16.4,-16.05l-0.15 -0.2c-4.13,-5.94 -7.28,-12.48 -10.51,-19.78zm304.48 2.62c-1.56,-1.48 -1.62,-3.95 -0.14,-5.5 1.48,-1.56 3.95,-1.62 5.5,-0.14 4.6,4.37 16.24,8.83 28.99,12.27 14.95,4.04 31.12,6.57 39.37,5.95 2.15,-0.16 4.02,1.45 4.18,3.6 0.16,2.15 -1.45,4.02 -3.6,4.18 -9.05,0.68 -26.27,-1.95 -41.97,-6.2 -13.83,-3.74 -26.73,-8.83 -32.35,-14.16zm-209.69 -103.09c-1.5,1.54 -3.97,1.57 -5.5,0.07 -1.54,-1.5 -1.58,-3.97 -0.08,-5.51 9.44,-9.66 28.82,-20.12 49.83,-22.27 15.69,-1.6 32.36,1.37 46.66,12.6 1.69,1.33 1.99,3.79 0.66,5.48 -1.33,1.69 -3.79,1.98 -5.48,0.65 -12.5,-9.82 -27.19,-12.4 -41.08,-10.98 -19.09,1.95 -36.57,11.31 -45.01,19.95z"/>
    <path class="fil7" d="M679.64 266.87c0.54,-0.63 1.27,-1.09 2.12,-1.28 9.55,-5.67 17.34,-8.93 22.49,-9.33 56.13,-4.34 91.83,-8.29 118.91,-16.77 26.73,-8.36 45.23,-21.26 67.2,-43.51 1.5,-1.53 3.98,-1.55 5.5,-0.04 1.13,1.11 1.44,2.75 0.91,4.15 0.39,0.55 0.64,1.2 0.7,1.88 0.21,1.46 0.61,3.48 1.07,5.83 3.53,18.02 10.77,54.96 -16.2,88.07 6.76,-5.26 13.59,-12.95 19.52,-22.36 11.28,-17.89 19.06,-41.81 16.82,-67.02l-0.02 -0.28c-1.81,-19.83 -7.15,-38.89 -16.59,-55.86 -8.7,-15.64 -20.93,-29.53 -37.1,-40.63 -2.26,-1.55 -4.54,-3.04 -6.82,-4.47 -52.1,-32.55 -104.93,-29.21 -152.38,-6.6 -47.93,22.83 -90.45,65.21 -121.37,110.29 -3.27,4.76 -6.41,9.57 -9.42,14.39 -27.74,44.41 -49.45,95.69 -61.14,148.44 -8.96,40.45 -12.03,81.78 -7.41,121.56 10.31,-42.81 34.84,-85.42 63.42,-122.43 36.84,-47.71 80.78,-86.26 109.78,-104.05zm203.39 266.69c1.24,-1.75 3.68,-2.16 5.43,-0.92 1.75,1.25 2.16,3.68 0.92,5.43 -9.63,13.56 -22.15,23.91 -35.32,28.68 -6.63,2.4 -13.44,3.4 -20.14,2.72 -6.76,-0.69 -13.37,-3.09 -19.56,-7.48 -9.58,-6.8 -18.09,-18.4 -24.43,-35.88 -1.32,-3.65 -3.27,-7.47 -5.26,-11.36 -4.62,-9.05 -9.47,-18.56 -9.09,-30.61 0.25,-7.73 7.13,-15.7 14.39,-19.47 2.27,-1.18 4.64,-1.99 6.93,-2.29 2.49,-0.33 4.89,-0.05 7,0.98 -0.67,-3.41 -1.01,-6.81 -0.91,-9.98 0.11,-3.36 1.17,-6.61 2.25,-9.88l0.07 -0.18c1.36,-4.15 2.7,-8.32 1.18,-10.78 -14.17,-22.9 -3.07,-45.23 -0.82,-49.44 -1.17,-0.44 -2.15,-1.23 -3.12,-2.1l0.1 1.25c0.24,2.98 0.48,5.79 -1.01,7.78 -3.28,4.38 -6.27,3.89 -9.17,1.72 -0.87,-0.65 -1.56,-1.42 -2.25,-2.18l-0.37 -0.4c-3.48,4.14 -7.95,8.18 -12.42,11.31 -4.69,3.28 -9.5,5.64 -13.4,6.21 -6.62,0.97 -14.89,-3.46 -23.13,-10.71 -7.97,-7 -16.19,-16.78 -22.84,-26.65l-2.42 3.23c-14.72,19.57 -30.54,40.6 23.4,87.03 3.19,2.75 6.61,5.27 10.03,7.8 13.11,9.69 26.46,19.56 30.92,42.32 0.21,1.08 -1.05,9.8 -7.89,17.73 -1.49,1.73 -3.24,3.45 -5.3,5.11 14.71,1.64 27.82,7.71 33.72,24.9 1.25,3.64 1.4,10.09 0.06,16.01 -0.8,3.53 -2.14,6.98 -4.12,9.71 7.4,5.86 16.88,11.81 27.99,17.46 13.59,-4.21 27.14,-9 39.45,-15.37 12.54,-6.5 23.82,-14.68 32.53,-25.64 11.12,-13.99 12.14,-31.12 13.22,-49.54 0.5,-8.38 1.01,-17.03 2.46,-25.9 0.75,-4.59 5.51,-15.56 10.35,-23.22 1.74,-2.76 3.53,-5.17 5.2,-6.83 2.57,-2.55 5.26,-3.67 7.92,-2.65 0.84,0.34 1.59,0.85 2.24,1.58 3.38,3.82 1.68,15.48 0.28,25.15l-0.39 2.26c0.38,-0.54 0.74,-1.1 1.08,-1.69 2.21,-3.79 3.89,-8.94 3.83,-16.15 -0.09,-11.5 0.74,-21.53 3.43,-25.89 -0.27,-0.69 -0.36,-1.45 -0.19,-2.23 1.44,-6.82 4.31,-21.79 1.24,-37.41 -3.01,-15.27 -11.85,-31.32 -33.74,-41 -7.8,-3.45 -17.75,-5.48 -28.06,-5.79 -9.87,-0.3 -20.05,0.98 -28.94,4.09 -1.78,0.62 -3.72,1.35 -5.79,2.17 -1.56,0.61 -2.98,1.19 -4.27,1.75 -0.28,1.93 -0.56,3.96 -0.83,6.08 -0.82,6.32 -5.51,7.34 -11.4,6.58 -2.16,-0.28 -4.31,-0.78 -6.43,-1.26 -2.96,-0.69 -5.88,-1.36 -7.49,-1.18l-4.69 3.32c-0.04,0.49 -0.03,1.17 -0.02,1.84 0.05,2.73 0.1,5.4 -1.91,7.38 0.03,0.21 0.13,0.53 0.12,1 -0.05,1.44 -0.09,2.79 -0.76,4.07l-0.15 0.27c-1.24,2.27 -12.06,22.02 0.36,42.08 3.42,5.54 1.53,11.45 -0.39,17.29l-0.06 0.19c-0.91,2.77 -1.82,5.53 -1.89,7.66 -0.13,4.31 0.77,9.29 2.25,14.07 1.62,5.21 3.9,10.09 6.28,13.56l0.17 0.22c4.93,7.08 10.97,11.75 19.69,12.58 9.33,0.88 21.9,-2.39 39.54,-11.36 0.34,-0.17 0.72,-0.3 1.12,-0.37 2.12,-0.36 4.14,1.07 4.5,3.19 1.43,8.26 -9.04,13.83 -21.47,20.42 -10.49,5.57 -22.61,12 -28.21,20.19 -1.16,1.69 -2.55,2.76 -4.1,3.28 -3.21,1.05 -6.32,-0.3 -9.23,-3.34 -2.12,-2.21 -4.26,-5.45 -6.28,-9.24 -6.6,-12.41 -12.54,-31.99 -12.55,-40.83 -0,-3.28 -0.77,-5.01 -1.93,-5.6 -0.66,-0.34 -1.58,-0.41 -2.64,-0.27 -1.34,0.17 -2.84,0.71 -4.36,1.5 -5.15,2.67 -10.02,7.96 -10.18,12.79 -0.31,10.01 4.08,18.62 8.26,26.83 2.07,4.05 4.09,8.01 5.62,12.25 5.76,15.88 13.28,26.27 21.63,32.2 5.03,3.57 10.39,5.52 15.83,6.08 5.5,0.56 11.14,-0.28 16.69,-2.29 11.67,-4.23 22.89,-13.57 31.63,-25.88zm-74.99 -158.15l0.12 -0.08c0.08,-0.24 -0.48,-0.76 -0.5,-1.55 -0.04,-2.03 -0.07,-4.11 1.02,-6.19 0.28,-0.52 0.67,-0.99 1.19,-1.36 0.02,-0.01 6.88,-5.2 9.43,-5.49 2.91,-0.33 6.46,0.5 10.08,1.33 2.01,0.47 4.06,0.94 5.67,1.15 1.52,0.2 2.69,0.31 2.71,0.16 2.09,-16.16 4.37,-27.11 7.26,-35.21 3.02,-8.47 6.69,-13.92 11.42,-18.8 5.54,-5.7 9.38,-8.73 12.38,-11.08 2.01,-1.58 3.61,-2.83 4.93,-4.32 23.89,-26.8 21.86,-57.49 18.66,-76.56 -34.05,82.78 -122.11,68.23 -175.41,59.42 -14.83,-2.45 -26.86,-4.44 -33.56,-3.62 -27.46,16.75 -70.69,54.92 -107.4,102.46 -32.48,42.06 -59.59,91.34 -65.71,139.45 5.28,-1.65 10.37,-3.88 15.2,-6.68 6.93,-4.01 13.34,-9.18 19.05,-15.4 8.83,-9.62 19.08,-17.92 30.09,-24.56 -0.31,-0.49 -0.51,-1.06 -0.57,-1.67 -2.85,-28.09 3.43,-46.64 14.93,-57.09 7.37,-6.7 16.79,-10.02 27.28,-10.36 10.16,-0.33 21.33,2.16 32.56,7.08 31.25,13.68 63.56,46.45 76.21,89.74 7.3,1.28 12.96,3.87 17.38,7.62 7.31,6.21 10.99,15.32 12.99,26.8 4.76,-2.41 8.25,-5.36 10.76,-8.27 4.99,-5.79 6.21,-10.63 6.12,-11.13 -3.88,-19.81 -16,-28.76 -27.9,-37.56 -3.56,-2.63 -7.12,-5.26 -10.46,-8.14 -59.48,-51.19 -41.39,-75.25 -24.56,-97.62 1.4,-1.86 2.79,-3.71 4.17,-5.64 -5.09,-8.61 -8.7,-16.93 -9.62,-23.22 -0.66,-4.52 -0.01,-8.29 2.29,-10.9 1.42,-1.62 3.89,-1.77 5.51,-0.35 1.62,1.42 1.77,3.89 0.35,5.51 -0.65,0.74 -0.76,2.37 -0.43,4.62 0.95,6.5 5.59,16.02 11.93,25.68 6.44,9.82 14.59,19.64 22.44,26.54 6.62,5.82 12.75,9.45 16.85,8.85 2.69,-0.39 6.33,-2.24 10.07,-4.87 4.12,-2.88 8.23,-6.64 11.34,-10.45 3.65,-4.47 6.76,-3.68 9.68,-1.3l0.91 0.82 -0.19 -2.56c-0.25,-4.64 0.43,-8.73 5.41,-8.99 3.56,-0.19 5.38,1.5 7.12,3.11 0.36,0.33 0.7,0.64 0.8,0.69zm3.02 107.3c1.75,8.9 6.12,21.52 10.84,30.41 1.71,3.22 3.43,5.87 5,7.5 0.74,0.77 1.12,1.27 1.19,1.32 0.04,-0.02 -0.03,-0.07 0.1,-0.26 6.56,-9.6 19.28,-16.46 30.44,-22.38 -7.82,2.26 -14.47,3 -20.21,2.45 -11.42,-1.08 -19.16,-6.97 -25.36,-15.88l-0.17 -0.26c-0.62,-0.9 -1.23,-1.88 -1.83,-2.92zm36.69 -133.47c1.78,-0.7 3.79,-1.45 6.05,-2.24 9.81,-3.44 20.95,-4.85 31.72,-4.52 11.33,0.34 22.31,2.6 30.99,6.43 24.78,10.96 34.82,29.23 38.26,46.64 2.99,15.16 0.88,29.56 -0.7,37.73 3.26,1.54 7.06,6.17 11.48,14.79 7.94,15.46 12.03,32.52 11.6,49.51 -0.4,16.21 -4.91,32.36 -14.1,47 -15,23.9 -29.99,40.27 -45.71,52.42 -13.19,10.2 -26.82,17.38 -41.35,23.53 4.78,1.36 9.66,2.64 14.63,3.81 34.12,8.06 72.55,11.36 110.12,5.54 32.39,-5.02 63.83,-18.1 89.52,-36.34 25.14,-17.83 44.74,-40.56 54.3,-65.4 0.76,-2.01 3.01,-3.01 5.02,-2.25 2,0.77 3.01,3.02 2.24,5.02 -10.13,26.35 -30.72,50.3 -57.05,68.98 -26.64,18.91 -59.24,32.47 -92.84,37.68 -38.69,5.99 -78.13,2.63 -113.09,-5.63 -24.9,-5.88 -47.59,-14.27 -66.16,-23.54 -0.2,-0.08 -0.4,-0.18 -0.58,-0.29 -12.65,-6.36 -23.37,-13.11 -31.54,-19.75 -6.17,3.76 -12.25,3.78 -17,1.64 -2.37,-1.07 -4.41,-2.68 -5.95,-4.64 -1.57,-1.98 -2.65,-4.32 -3.09,-6.81 -0.79,-4.47 0.38,-9.41 4.34,-13.68 -1.9,-1.4 -3.8,-2.26 -5.66,-2.65 -3.12,-0.66 -6.26,-0.01 -9.11,1.58 -0.85,0.47 -1.68,1.03 -2.48,1.66 -0.16,0.46 -0.3,0.95 -0.4,1.45 -1,4.59 0.17,10.41 2.98,15.76 2.85,5.41 7.36,10.23 13.01,12.72l0.18 0.08c1.21,0.51 2.48,0.93 3.82,1.22 2.11,0.45 3.44,2.53 2.99,4.64 -0.45,2.11 -2.53,3.45 -4.64,2.99 -1.81,-0.39 -3.58,-0.97 -5.27,-1.7l-0.22 -0.09c-7.35,-3.23 -13.15,-9.37 -16.76,-16.22 -1.69,-3.19 -2.9,-6.57 -3.59,-9.9 -1.64,4.03 -2.48,8.56 -2.22,13.15 0.78,13.44 -5.75,22.9 -14.73,27.83 -3.73,2.05 -7.91,3.3 -12.15,3.7 -4.25,0.4 -8.57,-0.03 -12.59,-1.35 -9.54,-3.12 -17.48,-11.06 -19.15,-24.27 -0.87,-6.88 3.41,-13.13 9.04,-16.44 2.08,-1.22 4.36,-2.06 6.64,-2.39 2.42,-0.35 4.87,-0.15 7.15,0.73 2.89,1.12 5.41,3.28 7.07,6.69 0.86,-1.76 1.34,-3.55 1.46,-5.34 0.22,-3.26 -0.71,-6.56 -2.57,-9.58l-0.17 -0.25c-2.07,-3.26 -5.22,-6.21 -9.17,-8.44 -6.48,-3.67 -15.08,-5.45 -24.78,-3.87 1.17,15.98 -2.47,28.52 -8.78,37.81 0.34,0.79 0.71,1.59 1.09,2.39 10.76,22.14 43.45,56.12 97.66,74.67 54.59,18.68 130.84,21.55 228.31,-19.15 9.38,-3.92 18.95,-8.23 28.69,-12.96 1.94,-0.93 4.27,-0.12 5.2,1.82 0.93,1.94 0.12,4.27 -1.82,5.2 -9.9,4.81 -19.6,9.19 -29.08,13.14 -99.53,41.56 -177.7,38.53 -233.8,19.33 -55.78,-19.09 -89.92,-54.32 -101.74,-77.79 -2.8,2.81 -5.89,5.18 -9.16,7.12 -6.25,3.72 -13.17,5.84 -19.97,6.44 -6.83,0.6 -13.62,-0.33 -19.56,-2.73 -11.72,-4.72 -20.17,-14.97 -19.78,-30.18 0.26,-10.16 4.46,-16.2 9.49,-18.81 2.78,-1.45 5.82,-1.84 8.65,-1.33 2.86,0.52 5.5,1.99 7.47,4.26 2.75,3.18 4.16,7.88 2.87,13.63 1.74,0 3.74,-0.84 5.66,-2.27 1.66,-1.23 3.23,-2.88 4.56,-4.83 1.35,-1.97 2.43,-4.21 3.08,-6.57 1.8,-6.5 0.36,-14.2 -7.66,-20.35 -8.23,-6.32 -16.26,-7.78 -24.95,-5.65 -8.49,2.07 -17.82,7.49 -28.63,15.15 5.23,8.55 8.12,18.36 8.33,27.94 0.16,7.04 -1.12,13.99 -3.96,20.25 -2.87,6.34 -7.33,11.98 -13.48,16.36 -7.64,5.42 -17.86,8.85 -30.88,9.14 -14.07,0.31 -23.98,-6.48 -29.36,-15.07l-0.16 -0.23c-2.17,-3.53 -3.58,-7.4 -4.19,-11.21 -0.63,-3.88 -0.42,-7.74 0.63,-11.17 1.9,-6.2 6.46,-11.02 13.78,-12.43l0.53 -0.1c2.14,-0.24 4.07,1.29 4.32,3.43 0.95,8.24 3.39,12.33 6.27,13.68 1.12,0.52 2.41,0.63 3.72,0.41 1.45,-0.24 2.94,-0.88 4.36,-1.77l0.18 -0.13c4.36,-2.84 7.77,-7.89 7.44,-12.19 -0.39,-5.08 -1.8,-8.74 -3.85,-11.28l-0.17 -0.19c-1.92,-2.29 -4.45,-3.73 -7.27,-4.54 -3.02,-0.87 -6.43,-1.05 -9.82,-0.79 -8.5,0.65 -16.49,3.9 -18.94,5.96 -8.97,7.54 -17.49,12.73 -25.45,16 -12.34,5.07 -23.36,5.55 -32.74,3.07 -9.46,-2.51 -17.2,-8.02 -22.96,-14.87 -3.51,-4.19 -6.29,-8.88 -8.26,-13.69 -0.82,-1.99 0.14,-4.26 2.12,-5.08 1.99,-0.82 4.26,0.13 5.08,2.12 1.69,4.11 4.05,8.1 7.03,11.64 4.8,5.7 11.2,10.28 18.97,12.34 7.85,2.08 17.18,1.63 27.79,-2.73 7.22,-2.97 15.04,-7.76 23.4,-14.78 3.24,-2.72 13.22,-6.98 23.36,-7.76 4.21,-0.32 8.54,-0.07 12.57,1.09 4.23,1.22 8.09,3.44 11.08,7.01l0.19 0.24c3.05,3.73 5.12,8.83 5.64,15.65 0.55,7.12 -4.48,15.07 -10.95,19.3l-0.24 0.14c-2.28,1.46 -4.78,2.5 -7.29,2.92 -2.8,0.47 -5.64,0.2 -8.3,-1.05 -4.4,-2.06 -8.11,-6.72 -9.93,-15.04 -2.1,1.31 -3.5,3.32 -4.23,5.69 -0.7,2.29 -0.83,4.94 -0.38,7.67 0.45,2.8 1.51,5.67 3.15,8.35l0.11 0.19c4.07,6.52 11.69,11.66 22.6,11.42 11.33,-0.25 20.09,-3.14 26.52,-7.71 4.97,-3.53 8.57,-8.09 10.89,-13.21 2.35,-5.2 3.41,-10.99 3.28,-16.89 -0.21,-9.28 -3.35,-18.83 -9.03,-26.82 -1.24,-1.74 -0.84,-4.16 0.89,-5.41 12.83,-9.35 23.91,-16.02 34.39,-18.58 11.05,-2.7 21.19,-0.89 31.51,7.02 11.08,8.5 13,19.36 10.44,28.61 -0.89,3.24 -2.35,6.26 -4.15,8.89 -1.81,2.65 -4,4.94 -6.36,6.69 -5.61,4.17 -12.19,5.31 -17.4,1.51 -1.47,-1.07 -1.97,-2.98 -1.32,-4.59 1.76,-4.38 1.24,-7.62 -0.34,-9.44 -0.78,-0.9 -1.84,-1.49 -2.98,-1.7 -1.17,-0.21 -2.45,-0.03 -3.65,0.59 -2.79,1.45 -5.14,5.26 -5.31,12.07 -0.29,11.48 6.07,19.21 14.9,22.76 4.79,1.93 10.34,2.68 15.99,2.18 5.69,-0.5 11.46,-2.27 16.68,-5.37 12.69,-7.54 22.12,-23.06 19.31,-47.57 -0.22,-1.98 1.08,-3.79 2.98,-4.23 13.11,-3.12 24.95,-0.95 33.73,4.02 5.1,2.88 9.18,6.72 11.93,11.03l0.17 0.3c2.73,4.41 4.09,9.31 3.76,14.23 -0.39,5.74 -3.06,11.43 -8.5,16.31 -1.6,1.43 -4.06,1.3 -5.49,-0.31 -0.6,-0.67 -0.93,-1.5 -0.98,-2.33 -0.36,-4.94 -2.04,-7.46 -4.15,-8.28 -0.96,-0.37 -2.07,-0.44 -3.21,-0.27 -1.3,0.19 -2.62,0.68 -3.83,1.39 -3.22,1.89 -5.71,5.25 -5.26,8.75 1.24,9.76 6.97,15.59 13.85,17.83 3.02,0.99 6.26,1.32 9.44,1.02 3.18,-0.3 6.31,-1.24 9.13,-2.79 6.54,-3.59 11.28,-10.56 10.71,-20.56 -0.47,-8.11 1.83,-16.08 5.79,-22.38 1.73,-2.75 3.79,-5.2 6.08,-7.23l0.02 -0.02 0 -0c0.11,-0.11 0.23,-0.21 0.36,-0.31l0 -0 0.03 -0.02c1.36,-1.16 2.81,-2.17 4.31,-3.01 4.44,-2.47 9.41,-3.47 14.49,-2.4 4.37,0.92 8.73,3.35 12.77,7.66 1.47,1.56 1.4,4.03 -0.17,5.5l-0.43 0.35c-3.97,2.81 -5.26,6.22 -4.75,9.1 0.22,1.23 0.75,2.38 1.5,3.34 0.78,0.99 1.82,1.81 3.02,2.35 3.13,1.41 7.52,0.97 12.1,-2.85 2.02,-1.68 3.38,-4.88 4.16,-8.33 1.03,-4.56 1,-9.29 0.15,-11.77 -8.05,-23.44 -35.51,-20.87 -56.99,-18.87l-2.63 0.25c-2.14,0.19 -4.03,-1.39 -4.22,-3.52 -0.19,-2.14 1.39,-4.03 3.52,-4.22l2.63 -0.25c3.99,-0.37 8.16,-0.76 12.4,-1.02 -1.68,-9.94 -4.65,-17.67 -10.42,-22.57 -6.45,-5.47 -16.74,-7.79 -33.13,-6.22 -1.69,0.26 -3.41,-0.62 -4.14,-2.25 -4.74,-10.53 -10.84,-18.93 -17.88,-25.4 -11.83,-10.87 -26.46,-16.34 -41.99,-17.35 -15.76,-1.02 -32.48,2.5 -48.25,9.62 -15.41,6.94 -29.9,17.31 -41.72,30.17 -6.23,6.79 -13.27,12.45 -20.88,16.87 -16.09,9.32 -34.75,13.04 -54.09,10.1 -19.18,-2.92 -39.02,-12.4 -57.61,-29.48 -12.5,-11.48 -24.46,-26.41 -35.3,-45.12 -1.08,-1.86 -0.44,-4.25 1.42,-5.32 1.86,-1.08 4.25,-0.44 5.32,1.42 10.42,17.99 21.88,32.32 33.83,43.29 17.38,15.96 35.79,24.8 53.5,27.5 8.81,1.34 17.45,1.16 25.73,-0.42 -9.21,-47.55 -6.84,-97.96 4.03,-147.05 11.89,-53.67 33.95,-105.78 62.11,-150.89 3.06,-4.89 6.26,-9.79 9.61,-14.67 31.62,-46.1 75.21,-89.49 124.45,-112.94 49.72,-23.68 105.13,-27.15 159.85,7.04 2.36,1.47 4.73,3.02 7.1,4.65 17.22,11.81 30.23,26.61 39.51,43.28 9.98,17.93 15.62,38.04 17.53,58.93l0.02 0.28c2.42,27.09 -5.89,52.74 -17.97,71.88 -12.2,19.35 -28.51,32.25 -41.82,33.64l-0.04 0.01c-0.37,0.06 -0.74,0.07 -1.1,0.02 -1.08,1.03 -2.25,2.18 -3.5,3.47 -3.98,4.09 -7.07,8.71 -9.65,15.96 -1.72,4.83 -3.23,10.81 -4.61,18.49zm47.88 83.39c-1.86,1.08 -4.25,0.44 -5.32,-1.42 -1.08,-1.86 -0.44,-4.25 1.42,-5.32 7.42,-4.31 13.48,-4.24 17.75,-1.63 2.6,1.6 4.45,4.08 5.47,7.08 0.93,2.72 1.18,5.89 0.71,9.17 -1.23,8.45 -7.36,17.98 -19.18,22.43 -2.01,0.76 -4.26,-0.26 -5.02,-2.27 -0.76,-2.01 0.26,-4.26 2.27,-5.02 8.79,-3.31 13.32,-10.19 14.21,-16.24 0.3,-2.06 0.17,-3.99 -0.37,-5.57 -0.44,-1.3 -1.17,-2.33 -2.14,-2.93 -1.95,-1.19 -5.21,-0.94 -9.79,1.72zm-31.42 184.29c0.15,-0.08 0.3,-0.15 0.45,-0.21 17.16,-6.71 32.92,-14.28 47.92,-25.87 15.02,-11.61 29.4,-27.34 43.87,-50.4 8.41,-13.4 12.54,-28.19 12.91,-43.03 0.4,-15.69 -3.39,-31.47 -10.74,-45.79 -4.15,-8.09 -5.79,-11.01 -5.9,-10.84 -1.84,2.81 -2.39,11.45 -2.31,21.75 0.07,8.89 -2.05,15.33 -4.87,20.15 -2.81,4.82 -6.21,7.9 -8.81,10.21l-0.31 0.25c-2.23,1.82 -4.21,1.58 -5.99,-0.41l-0.32 -0.41c-0.36,-0.54 -0.58,-1.14 -0.64,-1.76 -0.6,-3 0.12,-7.94 0.93,-13.48 0.88,-6.02 1.88,-12.96 1.93,-16.56 -1.03,1.19 -2.14,2.77 -3.26,4.55 -4.37,6.93 -8.63,16.5 -9.25,20.32 -1.38,8.47 -1.88,16.92 -2.36,25.11 -1.16,19.7 -2.25,38.02 -14.9,53.94 -9.47,11.91 -21.61,20.74 -35.06,27.71 -10.36,5.37 -21.5,9.63 -32.78,13.36 9.06,4.09 18.96,7.95 29.51,11.4zm-341.91 30.88c-1.44,-1.59 -1.32,-4.05 0.27,-5.49 1.59,-1.44 4.05,-1.32 5.49,0.27 15.13,16.73 39.32,42.57 74.99,65.08 35.61,22.47 82.74,41.66 143.86,45.19 2.15,0.12 3.79,1.96 3.68,4.1 -0.12,2.15 -1.96,3.79 -4.1,3.68 -62.67,-3.62 -111.03,-23.31 -147.58,-46.37 -36.49,-23.03 -61.18,-49.39 -76.61,-66.46zm44.04 -3.39c-1.44,-1.6 -1.31,-4.07 0.29,-5.5 1.6,-1.44 4.07,-1.31 5.5,0.29 12.3,13.66 25.5,25.72 39.37,36.31 74.19,56.62 168.19,71.82 249.15,67.92 80.82,-3.9 148.32,-26.68 170.06,-46.24 1.57,-1.41 2.87,-2.79 3.87,-4.1 1.3,-1.71 3.75,-2.03 5.46,-0.73 1.71,1.31 2.04,3.75 0.73,5.46 -1.31,1.72 -2.93,3.45 -4.84,5.17 -22.73,20.46 -92.28,44.24 -174.91,48.22 -82.49,3.98 -178.35,-11.58 -254.24,-69.5 -14.27,-10.89 -27.83,-23.27 -40.44,-37.28zm55.4 -22.51c-0.85,-1.98 0.07,-4.28 2.04,-5.12 1.98,-0.85 4.28,0.07 5.13,2.04 8.22,19.06 32.93,47.59 76.16,69.62 31.22,15.91 71.99,28.35 123.05,31.3 2.15,0.12 3.79,1.95 3.68,4.1 -0.12,2.15 -1.96,3.79 -4.11,3.68 -52.3,-3.02 -94.12,-15.79 -126.16,-32.12 -45.06,-22.97 -71.02,-53.18 -79.79,-73.49zm294.02 102.39c-2.12,0.33 -4.12,-1.12 -4.45,-3.24 -0.34,-2.12 1.12,-4.12 3.24,-4.45 26.11,-4.21 58.67,-11.5 93.73,-30.04 35.08,-18.55 72.75,-48.41 109.12,-97.77 1.27,-1.74 3.71,-2.11 5.45,-0.84 1.73,1.27 2.11,3.71 0.84,5.45 -37.18,50.45 -75.78,81.02 -111.78,100.06 -36.02,19.05 -69.39,26.53 -96.14,30.84zm-160.44 -101.49c-1.69,-1.34 -1.96,-3.79 -0.63,-5.48 1.34,-1.69 3.79,-1.96 5.48,-0.63 12.48,9.93 34.8,17.08 59.11,21.85 33.12,6.5 69.66,8.51 90.5,7.2 2.15,-0.13 4,1.5 4.14,3.64 0.13,2.15 -1.5,4 -3.64,4.13 -21.38,1.35 -58.74,-0.69 -92.49,-7.32 -25.38,-4.98 -48.89,-12.61 -62.46,-23.41zm-173.62 -158.28c2.36,-1.24 4.73,-2.4 7.13,-3.48 16.9,-7.62 34.9,-11.4 51.94,-10.29 17.26,1.12 33.55,7.24 46.78,19.39 7.22,6.63 13.52,15.05 18.54,25.42 3.81,-0.29 7.33,-0.36 10.59,-0.24 -12.55,-39.44 -42.22,-69.19 -70.92,-81.75 -10.2,-4.46 -20.22,-6.72 -29.21,-6.44 -8.65,0.28 -16.35,2.96 -22.28,8.35 -9.55,8.68 -14.79,24.56 -12.58,49.03zm115.73 -198.53c6.05,0.71 13.07,1.87 20.81,3.15 51.76,8.55 137.82,22.77 168.54,-58.8 -19.19,17.88 -36.97,28.98 -61.3,36.6 -27.78,8.69 -63.94,12.72 -120.64,17.1 -2.03,0.16 -4.52,0.82 -7.4,1.95zm103.65 113.7c-0.23,-0.18 -0.44,-0.3 -0.57,-0.3 -0.89,0.05 -0.22,0.14 0.57,0.3z"/>
   </g>
   <path class="fil5" d="M275.45 1324.06l-0.09 -44.31 -21.98 36.92 -4 0 -21.98 -36.66 0 44.04 -8.34 0 0 -60.81 7.12 0 25.36 42.74 25.02 -42.74 7.12 0 0.09 60.81 -8.34 0zm54.03 0.69c-6.14,0 -11.67,-1.35 -16.59,-4.04 -4.92,-2.69 -8.79,-6.41 -11.6,-11.16 -2.81,-4.75 -4.21,-10.05 -4.21,-15.9 0,-5.85 1.4,-11.15 4.21,-15.9 2.81,-4.75 6.68,-8.47 11.6,-11.17 4.92,-2.69 10.45,-4.04 16.59,-4.04 6.08,0 11.58,1.35 16.5,4.04 4.93,2.69 8.78,6.4 11.55,11.12 2.78,4.72 4.17,10.03 4.17,15.94 0,5.91 -1.39,11.22 -4.17,15.94 -2.78,4.72 -6.63,8.43 -11.55,11.12 -4.92,2.69 -10.42,4.04 -16.5,4.04zm0 -7.73c4.46,0 8.47,-1.01 12.03,-3.04 3.56,-2.02 6.37,-4.82 8.43,-8.38 2.06,-3.56 3.08,-7.54 3.08,-11.94 0,-4.4 -1.03,-8.38 -3.08,-11.94 -2.06,-3.56 -4.86,-6.36 -8.43,-8.38 -3.56,-2.03 -7.57,-3.04 -12.03,-3.04 -4.46,0 -8.5,1.01 -12.12,3.04 -3.62,2.02 -6.46,4.82 -8.51,8.38 -2.06,3.56 -3.08,7.54 -3.08,11.94 0,4.4 1.03,8.38 3.08,11.94 2.06,3.56 4.89,6.36 8.51,8.38 3.62,2.03 7.66,3.04 12.12,3.04zm101.9 7.04l-0.09 -44.31 -21.98 36.92 -4 0 -21.98 -36.66 0 44.04 -8.34 0 0 -60.81 7.12 0 25.36 42.74 25.02 -42.74 7.12 0 0.09 60.81 -8.34 0zm127.09 -31.54c3.53,0.98 6.31,2.77 8.34,5.34 2.03,2.58 3.04,5.83 3.04,9.78 0,5.27 -1.98,9.32 -5.95,12.16 -3.97,2.84 -9.74,4.26 -17.33,4.26l-29.02 0 0 -60.81 27.28 0c6.95,0 12.32,1.39 16.12,4.17 3.79,2.78 5.69,6.63 5.69,11.55 0,3.19 -0.74,5.94 -2.21,8.25 -1.48,2.32 -3.46,4.08 -5.95,5.3zm-32.23 -22.24l0 19.46 17.81 0c4.46,0 7.89,-0.83 10.3,-2.48 2.4,-1.65 3.6,-4.07 3.6,-7.25 0,-3.19 -1.2,-5.6 -3.6,-7.26 -2.4,-1.65 -5.83,-2.47 -10.3,-2.47l-17.81 0zm19.98 46.73c4.93,0 8.63,-0.81 11.12,-2.43 2.49,-1.62 3.74,-4.17 3.74,-7.64 0,-6.78 -4.95,-10.16 -14.86,-10.16l-19.98 0 0 20.24 19.98 0zm75.84 -8.17l-32.31 0 -6.69 15.2 -8.95 0 27.54 -60.81 8.6 0 27.62 60.81 -9.12 0 -6.69 -15.2zm-3.04 -6.95l-13.12 -29.8 -13.12 29.8 26.23 0zm68.8 -9.38c3.53,0.98 6.31,2.77 8.34,5.34 2.03,2.58 3.04,5.83 3.04,9.78 0,5.27 -1.98,9.32 -5.95,12.16 -3.97,2.84 -9.74,4.26 -17.33,4.26l-29.02 0 0 -60.81 27.28 0c6.95,0 12.32,1.39 16.12,4.17 3.79,2.78 5.69,6.63 5.69,11.55 0,3.19 -0.74,5.94 -2.21,8.25 -1.48,2.32 -3.46,4.08 -5.95,5.3zm-32.23 -22.24l0 19.46 17.81 0c4.46,0 7.89,-0.83 10.3,-2.48 2.4,-1.65 3.6,-4.07 3.6,-7.25 0,-3.19 -1.2,-5.6 -3.6,-7.26 -2.4,-1.65 -5.83,-2.47 -10.3,-2.47l-17.81 0zm19.98 46.73c4.93,0 8.63,-0.81 11.12,-2.43 2.49,-1.62 3.74,-4.17 3.74,-7.64 0,-6.78 -4.95,-10.16 -14.86,-10.16l-19.98 0 0 20.24 19.98 0zm59.07 -13.98l0 21.02 -8.6 0 0 -21.2 -24.15 -39.61 9.3 0 19.46 32.06 19.55 -32.06 8.6 0 -24.15 39.79zm83.48 21.72c-6.08,0 -11.57,-1.35 -16.46,-4.04 -4.89,-2.69 -8.73,-6.4 -11.51,-11.12 -2.78,-4.72 -4.17,-10.03 -4.17,-15.94 0,-5.91 1.39,-11.22 4.17,-15.94 2.78,-4.72 6.63,-8.43 11.55,-11.12 4.92,-2.69 10.42,-4.04 16.5,-4.04 4.75,0 9.09,0.79 13.03,2.39 3.94,1.59 7.3,3.95 10.08,7.08l-5.65 5.47c-4.57,-4.81 -10.28,-7.21 -17.11,-7.21 -4.52,0 -8.6,1.01 -12.25,3.04 -3.65,2.02 -6.5,4.82 -8.56,8.38 -2.06,3.56 -3.08,7.54 -3.08,11.94 0,4.4 1.03,8.38 3.08,11.94 2.06,3.56 4.91,6.36 8.56,8.38 3.65,2.03 7.73,3.04 12.25,3.04 6.78,0 12.48,-2.43 17.11,-7.3l5.65 5.47c-2.78,3.13 -6.15,5.5 -10.12,7.12 -3.97,1.62 -8.32,2.43 -13.07,2.43zm72.89 -15.9l-32.31 0 -6.69 15.2 -8.95 0 27.54 -60.81 8.6 0 27.62 60.81 -9.12 0 -6.69 -15.2zm-3.04 -6.95l-13.12 -29.8 -13.12 29.8 26.23 0zm68.54 22.15l-13.12 -18.68c-1.62,0.12 -2.9,0.17 -3.82,0.17l-15.03 0 0 18.5 -8.69 0 0 -60.81 23.72 0c7.88,0 14.07,1.88 18.59,5.64 4.52,3.77 6.78,8.95 6.78,15.55 0,4.69 -1.16,8.69 -3.48,11.99 -2.31,3.3 -5.62,5.7 -9.9,7.21l14.42 20.41 -9.47 0zm-17.2 -25.89c5.5,0 9.7,-1.19 12.6,-3.56 2.89,-2.38 4.34,-5.76 4.34,-10.17 0,-4.4 -1.45,-7.78 -4.34,-10.12 -2.9,-2.35 -7.1,-3.52 -12.6,-3.52l-14.77 0 0 27.36 14.77 0zm83.83 18.33l0 7.56 -44.13 0 0 -60.81 42.92 0 0 7.56 -34.23 0 0 18.68 30.49 0 0 7.39 -30.49 0 0 19.63 35.44 0zm76.19 -7.64l-32.31 0 -6.69 15.2 -8.95 0 27.54 -60.81 8.6 0 27.62 60.81 -9.12 0 -6.69 -15.2zm-3.04 -6.95l-13.12 -29.8 -13.12 29.8 26.23 0zm69.15 -8.6l8.34 0 0 23.72c-3.01,2.49 -6.52,4.4 -10.51,5.74 -4,1.33 -8.17,2 -12.51,2 -6.14,0 -11.67,-1.35 -16.59,-4.04 -4.92,-2.69 -8.79,-6.4 -11.6,-11.12 -2.81,-4.72 -4.21,-10.03 -4.21,-15.94 0,-5.91 1.4,-11.24 4.21,-15.98 2.81,-4.75 6.69,-8.45 11.64,-11.12 4.95,-2.66 10.53,-3.99 16.72,-3.99 4.86,0 9.28,0.79 13.25,2.39 3.97,1.59 7.34,3.92 10.12,6.99l-5.39 5.39c-4.86,-4.69 -10.74,-7.03 -17.64,-7.03 -4.63,0 -8.79,1 -12.46,3 -3.68,2 -6.56,4.78 -8.64,8.34 -2.08,3.56 -3.13,7.57 -3.13,12.03 0,4.4 1.04,8.38 3.13,11.94 2.08,3.56 4.97,6.36 8.64,8.38 3.68,2.03 7.8,3.04 12.38,3.04 5.45,0 10.19,-1.3 14.25,-3.91l0 -19.81zm69.06 23.2l0 7.56 -44.13 0 0 -60.81 42.92 0 0 7.56 -34.23 0 0 18.68 30.49 0 0 7.39 -30.49 0 0 19.63 35.44 0zm66.37 -53.25l0 60.81 -7.12 0 -36.49 -45.35 0 45.35 -8.69 0 0 -60.81 7.12 0 36.49 45.35 0 -45.35 8.69 0zm45.43 61.5c-6.08,0 -11.57,-1.35 -16.46,-4.04 -4.89,-2.69 -8.73,-6.4 -11.51,-11.12 -2.78,-4.72 -4.17,-10.03 -4.17,-15.94 0,-5.91 1.39,-11.22 4.17,-15.94 2.78,-4.72 6.63,-8.43 11.55,-11.12 4.92,-2.69 10.42,-4.04 16.5,-4.04 4.75,0 9.09,0.79 13.03,2.39 3.94,1.59 7.3,3.95 10.08,7.08l-5.65 5.47c-4.57,-4.81 -10.28,-7.21 -17.11,-7.21 -4.52,0 -8.6,1.01 -12.25,3.04 -3.65,2.02 -6.5,4.82 -8.56,8.38 -2.06,3.56 -3.08,7.54 -3.08,11.94 0,4.4 1.03,8.38 3.08,11.94 2.06,3.56 4.91,6.36 8.56,8.38 3.65,2.03 7.73,3.04 12.25,3.04 6.78,0 12.48,-2.43 17.11,-7.3l5.65 5.47c-2.78,3.13 -6.15,5.5 -10.12,7.12 -3.97,1.62 -8.32,2.43 -13.07,2.43zm57.86 -21.72l0 21.02 -8.6 0 0 -21.2 -24.15 -39.61 9.3 0 19.46 32.06 19.55 -32.06 8.6 0 -24.15 39.79zm-901.73 21.98l-8.08 -8.08c-5.39,5.21 -12.16,7.82 -20.33,7.82 -4.05,0 -7.7,-0.67 -10.95,-2 -3.24,-1.33 -5.78,-3.2 -7.6,-5.6 -1.82,-2.4 -2.74,-5.14 -2.74,-8.21 0,-3.71 1.14,-6.99 3.43,-9.86 2.29,-2.87 6.07,-5.81 11.34,-8.82 -2.66,-2.66 -4.55,-5.07 -5.64,-7.21 -1.1,-2.14 -1.65,-4.37 -1.65,-6.69 0,-4.11 1.49,-7.41 4.47,-9.9 2.98,-2.49 6.97,-3.74 11.95,-3.74 4.63,0 8.31,1.13 11.03,3.39 2.72,2.26 4.08,5.36 4.08,9.3 0,3.07 -1,5.82 -3,8.25 -2,2.43 -5.31,4.98 -9.95,7.64l15.03 14.94c1.74,-3.3 2.98,-6.98 3.74,-11.03l6.69 2.17c-1.04,5.33 -2.81,9.96 -5.3,13.9l8.17 8.17 -4.69 5.56zm-25.8 -56.21c-2.72,0 -4.85,0.68 -6.39,2.04 -1.54,1.36 -2.3,3.14 -2.3,5.34 0,1.56 0.42,3.07 1.26,4.52 0.84,1.45 2.48,3.42 4.91,5.91 4,-2.26 6.76,-4.2 8.3,-5.82 1.54,-1.62 2.3,-3.39 2.3,-5.3 0,-2.03 -0.71,-3.65 -2.13,-4.87 -1.42,-1.21 -3.4,-1.82 -5.95,-1.82zm-2.09 48.99c6.02,0 10.98,-1.91 14.86,-5.73l-17.29 -17.2c-4.17,2.32 -7.08,4.47 -8.73,6.47 -1.65,2 -2.48,4.24 -2.48,6.73 0,2.9 1.26,5.24 3.78,7.04 2.52,1.79 5.81,2.69 9.86,2.69z"/>
  </g>
 </g>
</svg>
